<ttFont>
          <CharString index="0">
            -45 10 35 -28 48 hhcurveto
            35 24 7 6 12 hvcurveto
            69 -36 vlineto
            -18 -17 10 25 hvcurveto
            269 vlineto
            101 -67 60 -138 -126 -87 -52 -94 -9 0 -7 1 -6 vhcurveto
            100 13 hlineto
            34 22 38 86 87 19 -37 -51 vhcurveto
            -52 vlineto
            return
          </CharString>
          <CharString index="1">
            114 hlineto
            62 167 rlineto
            316 hlineto
            63 -167 rlineto
            118 hlineto
            -266 686 rlineto
            -140 hlineto
            -56 -424 rmoveto
            76 203 14 39 20 58 10 29 rlinecurve
            5 hlineto
            45 -128 75 -201 rlineto
            return
          </CharString>
          <CharString index="2">
            -106 callgsubr
            endchar
          </CharString>
          <CharString index="3">
            -198 -142 -35 -144 -127 107 -21 63 hvcurveto
            30 84 rmoveto
            -61 -33 21 51 77 99 16 135 hvcurveto
            -32 vlineto
            -85 -64 -48 -76 vhcurveto
            return
          </CharString>
          <CharString index="4">
            rmoveto
            -106 callsubr
            endchar
          </CharString>
          <CharString index="5">
            rmoveto
            114 50 96 113 40 hvcurveto
            174 499 rlineto
            -103 hlineto
            -82 -258 rlineto
            -19 -60 -27 -97 0 vvcurveto
            -5 hlineto
            0 -30 103 -21 54 vhcurveto
            -98 258 74 callsubr
            204 -526 rlineto
            -78 -23 -45 -26 -54 hhcurveto
            -44 -68 hlineto
            -4 11 25 -6 41 hhcurveto
            return
          </CharString>
          <CharString index="6">
            -86 -60 -55 -70 -63 -41 23 83 vhcurveto
            344 -103 -357 vlineto
            -133 67 -48 100 return
          </CharString>
          <CharString index="7">
            -74 callgsubr
            -49 callsubr
            -90 callgsubr
            -336 -89 callsubr
            return
          </CharString>
          <CharString index="8">
            rmoveto
            155 78 82 163 hvcurveto
            463 -103 -272 vlineto
            -96 -62 -59 -79 -55 -38 25 81 vhcurveto
            321 -103 -334 vlineto
            -132 70 -49 102 73 53 28 47 35 vhcurveto
            6 -27 hlineto
            -106 -1 -45 -51 -89 hhcurveto
            -54 -48 20 53 hvcurveto
            -100 -10 hlineto
            -100 88 -47 117 vhcurveto
            endchar
          </CharString>
          <CharString index="9">
            139 hlineto
            109 468 rlineto
            8 35 11 72 0 vvcurveto
            5 hlineto
            0 11 -66 10 -41 vhcurveto
            110 -468 rlineto
            139 hlineto
            193 686 -5 callsubr
            -124 -465 rlineto
            -7 -27 -16 -75 0 vvcurveto
            -5 hlineto
            0 -13 71 -7 31 vhcurveto
            -107 465 rlineto
            -148 hlineto
            -104 -465 rlineto
            -4 -19 -15 -83 0 vvcurveto
            -5 hlineto
            0 -16 76 -7 26 vhcurveto
            -126 465 rlineto
            -117 hlineto
            endchar
          </CharString>
          <CharString index="10">
            -6 callsubr
            -67 132 rlineto
            -108 -14 callgsubr
            241 -129 -6 callsubr
            -67 132 rlineto
            -108 -14 callgsubr
            return
          </CharString>
          <CharString index="11">
            538 95 -427 208 377 95 -377 193 421 95 -532 hlineto
            return
          </CharString>
          <CharString index="12">
            111 275 233 hlineto
            141 -275 rlineto
            121 hlineto
            -152 291 rlineto
            80 31 44 69 94 vvcurveto
            120 -73 81 -146 vhcurveto
            -359 hlineto
            111 -317 rmoveto
            222 241 vlineto
            76 38 -40 -67 -72 -43 -43 -71 hvcurveto
            return
          </CharString>
          <CharString index="13">
            9 36 14 74 0 vvcurveto
            4 hlineto
            24 -110 71 -295 rlineto
            110 hlineto
            158 526 rlineto
            -100 hlineto
            -72 -274 rlineto
            -10 -40 -20 -91 0 vvcurveto
            -5 hlineto
            0 -20 97 -9 34 vhcurveto
            -68 274 rlineto
            -117 hlineto
            -65 -273 rlineto
            -7 -30 -21 -102 0 vvcurveto
            -4 hlineto
            0 -23 101 -8 31 vhcurveto
            -74 273 rlineto
            -106 hlineto
            endchar
          </CharString>
          <CharString index="14">
            -101 callgsubr
            59 -87 callgsubr
            return
          </CharString>
          <CharString index="15">
            -11 callsubr
            -86 callsubr
            return
          </CharString>
          <CharString index="16">
            rmoveto
            74 60 28 54 39 hvcurveto
            7 hlineto
            hintmask 01111100
            -76 callgsubr
            hintmask 10111100
            -101 callsubr
            vhcurveto
            endchar
          </CharString>
          <CharString index="17">
            111 282 hlineto
            267 404 rlineto
            -124 hlineto
            -193 -304 rlineto
            -5 hlineto
            -194 304 rlineto
            -130 hlineto
            268 -404 rlineto
            return
          </CharString>
          <CharString index="18">
            -745 rmoveto
            -106 callsubr
            return
          </CharString>
          <CharString index="19">
            -80 callgsubr
            hintmask 10111110
            -85 callsubr
            hintmask 10111101
            101 78 27 61 57 hvcurveto
            hintmask 01111101
            9 -76 rlineto
            82 362 -342 hlineto
            endchar
          </CharString>
          <CharString index="20">
            86 60 55 70 63 41 -23 -83 vhcurveto
            -344 103 357 vlineto
            133 -67 48 -100 -74 -61 -28 -54 -38 vhcurveto
            -7 hlineto
            return
          </CharString>
          <CharString index="21">
            -735 rmoveto
            -105 callgsubr
            return
          </CharString>
          <CharString index="22">
            116 86 -49 -103 hvcurveto
            113 hlineto
            166 -138 80 -179 -225 -123 -116 -239 -241 120 -114 218 vhcurveto
            return
          </CharString>
          <CharString index="23">
            rmoveto
            -96 callsubr
            endchar
          </CharString>
          <CharString index="24">
            453 85 -303 hlineto
            288 391 rlineto
            50 -419 -85 269 vlineto
            -288 -390 rlineto
            return
          </CharString>
          <CharString index="25">
            64 15 41 47 67 vvcurveto
            -99 hlineto
            -4 -29 -17 -36 -50 -26 rrcurveto
            11 -30 -34 6 -37 hhcurveto
            -138 -81 -66 -112 -59 28 -47 44 -31 hvcurveto
            return
          </CharString>
          <CharString index="26">
            -35 callgsubr
            -81 callgsubr
            return
          </CharString>
          <CharString index="27">
            -735 rmoveto
            128 95 47 117 hvcurveto
            hintmask 11101010
            -44 callgsubr
            hintmask 11101100
            -75 callgsubr
            hintmask 11101010
            -44 callsubr
            hintmask 11110010
            -60 callgsubr
            endchar
          </CharString>
          <CharString index="28">
            -103 -362 rmoveto
            -36 -24 24 37 36 25 23 35 hvcurveto
            211 hlineto
            36 25 -22 -37 -37 -31 -24 -41 hvcurveto
            endchar
          </CharString>
          <CharString index="29">
            15 callsubr
            hintmask 1111101010000000
            -78 callgsubr
            hintmask 1111100100100000
            -82 callsubr
            hintmask 1111101010000000
            -38 callsubr
            hintmask 1111110010000000
            31 callgsubr
            hintmask 1111110001000000
            -91 73 -34 66 vhcurveto
            hintmask 1111100110000000
            -70 callgsubr
            hintmask 1111110001000000
            -79 callsubr
          </CharString>
          <CharString index="30">
            90 65 -36 -65 hvcurveto
            -13 108 12 vlineto
            138 -118 58 -147 -151 -119 -59 -127 vhcurveto
            return
          </CharString>
          <CharString index="31">
            -98 callgsubr
            -211 -62 callsubr
            return
          </CharString>
          <CharString index="32">
            rmoveto
            79 58 29 47 36 hvcurveto
            7 hlineto
            return
          </CharString>
          <CharString index="33">
            567 95 -401 hlineto
            392 536 rlineto
            55 -532 -95 366 vlineto
            -392 -536 rlineto
            return
          </CharString>
          <CharString index="34">
            64 26 51 59 hvcurveto
            -67 hlineto
            return
          </CharString>
          <CharString index="35">
            rmoveto
            133 75 69 140 hvcurveto
            489 -110 -492 vlineto
            -74 -34 -38 -64 -64 -34 35 66 vhcurveto
            34 -110 -31 vlineto
            -130 76 -68 132 vhcurveto
            endchar
          </CharString>
          <CharString index="36">
            -13 -40 -32 -25 -51 -13 rrcurveto
            44 -57 -77 21 -92 hhcurveto
            -42 callgsubr
            return
          </CharString>
          <CharString index="37">
            84 -81 82 164 -40 callgsubr
            return
          </CharString>
          <CharString index="38">
            -209 -428 rmoveto
            -12 callgsubr
            10 vlineto
            128 43 57 101 102 43 -57 -128 vhcurveto
            return
          </CharString>
          <CharString index="39">
            rmoveto
            496 153 vlineto
            141 83 -70 -173 hvcurveto
            -11 vlineto
            -172 -83 -70 -141 vhcurveto
            return
          </CharString>
          <CharString index="40">
            591 -96 callgsubr
            return
          </CharString>
          <CharString index="41">
            745 -74 callgsubr
            -49 callsubr
            -90 callgsubr
            return
          </CharString>
          <CharString index="42">
            733 -98 callgsubr
            return
          </CharString>
          <CharString index="43">
            rmoveto
            103 294 hlineto
            98 54 40 75 vhcurveto
            37 hlineto
            hintmask 10011100
            98 vlineto
            hintmask 11001100
            0 -20 8 -29 -69 -34 -46 -47 -18 vhcurveto
            -6 hlineto
            hintmask 10101100
            -10 81 rlineto
            -83 hlineto
            endchar
          </CharString>
          <CharString index="44">
            106 108 -91 110 hintmask 00000000
            hintmask 11110101
            331 -12 rmoveto
            166 121 57 154 hvcurveto
            hintmask 11101101
            245 -443 -77 151 vvcurveto
            58 65 28 96 vhcurveto
            hintmask 11101110
            -77 callsubr
            hintmask 11101101
            -251 444 88 -166 vvcurveto
            -64 -59 -37 -119 vhcurveto
            hintmask 11110101
            -104 -70 39 76 hvcurveto
            6 2 12 2 vvcurveto
            -110 hlineto
            -4 -1 -10 -7 vvcurveto
            -148 131 -60 153 vhcurveto
            return
          </CharString>
          <CharString index="45">
            -868 rmoveto
            -96 callsubr
            return
          </CharString>
          <CharString index="46">
            rmoveto
            -95 -36 51 131 hvcurveto
            9 vlineto
            133 37 52 94 90 39 -67 -119 vhcurveto
            -8 vlineto
            -117 -38 -65 -91 vhcurveto
            return
          </CharString>
          <CharString index="47">
            rmoveto
            78 hlineto
            46 65 rlineto
            -19 37 45 -9 54 hhcurveto
            -22 callgsubr
            189 94 -22 68 -42 45 hvcurveto
            74 105 rlineto
            -77 hlineto
            -47 -66 rlineto
            19 -37 -46 10 -54 hhcurveto
            -165 -85 -86 -189 -95 21 -69 42 -45 hvcurveto
            63 88 rmoveto
            -14 29 -6 39 51 vvcurveto
            8 vlineto
            127 43 57 101 34 28 -7 -14 21 vhcurveto
            -83 -359 rmoveto
            -34 -27 6 14 -21 hvcurveto
            206 290 rlineto
            14 -29 6 -39 -50 vvcurveto
            -8 vlineto
            -127 -42 -57 -102 vhcurveto
            endchar
          </CharString>
          <CharString index="48">
            154 -61 callgsubr
            return
          </CharString>
          <CharString index="49">
            54 102 -91 105 hintmask 00000000
            hintmask 11110101
            257 -12 rmoveto
            128 95 47 117 hvcurveto
            hintmask 11101101
            -44 callgsubr
            hintmask 11101110
            -75 callgsubr
            hintmask 11101101
            -44 callsubr
            hintmask 11110101
            -60 callgsubr
            return
          </CharString>
          <CharString index="50">
            26 34 6 8 18 hvcurveto
            70 -46 vlineto
            -29 -14 16 30 hvcurveto
            322 89 85 -89 147 -82 vlineto
            -20 -147 rlineto
            -65 -85 64 -332 hlineto
            return
          </CharString>
          <CharString index="51">
            -65 callgsubr
            -264 hlineto
            111 -591 -68 callsubr
            return
          </CharString>
          <CharString index="52">
            -63 -26 -51 -59 hvcurveto
            return
          </CharString>
          <CharString index="53">
            10 -70 rlineto
            82 723 -103 -257 -6 hlineto
            49 -34 -52 23 -73 hhcurveto
            -119 -82 -84 -191 hvcurveto
            return
          </CharString>
          <CharString index="54">
            49 42 -33 53 hhcurveto
            return
          </CharString>
          <CharString index="55">
            93 122 rlineto
            -87 hlineto
            -62 -81 rlineto
            30 -53 -65 14 -76 hhcurveto
            -214 -130 -116 -239 -122 34 -90 61 -58 hvcurveto
            66 87 rmoveto
            -31 41 -16 58 79 vvcurveto
            12 vlineto
            177 85 77 145 52 45 -10 -21 36 vhcurveto
            -133 -491 rmoveto
            -52 -44 9 21 -35 hvcurveto
            315 414 rlineto
            30 -42 17 -58 -78 vvcurveto
            84 callsubr
          </CharString>
          <CharString index="56">
            30 16 16 32 vhcurveto
            51 72 hlineto
            7 -19 -32 6 -28 hhcurveto
            -96 -27 -65 -63 hvcurveto
            -77 -76 -85 76 return
          </CharString>
          <CharString index="57">
            -29 callsubr
            214 103 return
          </CharString>
          <CharString index="58">
            -21 -3 -19 -30 -59 hhcurveto
            return
          </CharString>
          <CharString index="59">
            -54 callgsubr
            -52 callgsubr
            return
          </CharString>
          <CharString index="60">
            88 -55 -31 callgsubr
            return
          </CharString>
          <CharString index="61">
            766 -88 callgsubr
            return
          </CharString>
          <CharString index="62">
            94 522 94 return
          </CharString>
          <CharString index="63">
            -193 326 72 -125 vvcurveto
            -47 -53 -22 -60 vhcurveto
            return
          </CharString>
          <CharString index="64">
            -48 -152 -21 161 85 callsubr
            69 -26 callsubr
            hintmask 11011100
            69 -173 rmoveto
            103 114 hlineto
            20 0 23 -2 30 vhcurveto
            -18 24 31 -8 35 hhcurveto
            63 52 28 54 34 hvcurveto
            7 hlineto
            hintmask 10111100
            -76 callgsubr
            hintmask 11011100
            -86 -60 -55 -70 -63 -41 23 83 vhcurveto
            344 -103 vlineto
            endchar
          </CharString>
          <CharString index="65">
            5 callsubr
            461 114 return
          </CharString>
          <CharString index="66">
            rmoveto
            97 102 -97 hlineto
            return
          </CharString>
          <CharString index="67">
            54 vstem
            368 -12 rmoveto
            196 159 159 196 196 -159 159 -196 -196 -159 -159 -196 -196 159 -159 196 hvcurveto
            52 vmoveto
            -167 -134 135 168 167 134 136 167 167 134 -136 -167 -168 -134 -135 -167 hvcurveto
            return
          </CharString>
          <CharString index="68">
            -12 85 380 85 return
          </CharString>
          <CharString index="69">
            -35 -9 -54 -25 -55 vvcurveto
            -37 24 -27 30 -16 vhcurveto
            return
          </CharString>
          <CharString index="70">
            154 9 callgsubr
            -43 callgsubr
            return
          </CharString>
          <CharString index="71">
            -62 callsubr
            endchar
          </CharString>
          <CharString index="72">
            72 callsubr
            162 hlineto
            88 84 135 -246 rlineto
            119 hlineto
            -189 321 179 205 rlineto
            -124 hlineto
            -208 -243 rlineto
            return
          </CharString>
          <CharString index="73">
            hstem
            -38 callgsubr
            return
          </CharString>
          <CharString index="74">
            -6 callsubr
            48 130 -1 2 rlineto
            -105 hlineto
            return
          </CharString>
          <CharString index="75">
            129 -28 callgsubr
            -117 return
          </CharString>
          <CharString index="76">
            591 -81 callsubr
            return
          </CharString>
          <CharString index="77">
            736 -81 callsubr
            return
          </CharString>
          <CharString index="78">
            hstemhm
            34 106 -81 101 return
          </CharString>
          <CharString index="79">
            -160 vmoveto
            -39 -20 19 32 32 20 18 39 38 21 -18 -32 -32 -21 -19 -38 hvcurveto
            endchar
          </CharString>
          <CharString index="80">
            77 callgsubr
            hintmask 00000000
            hintmask 10101110
            -2 callsubr
            hintmask 01011110
            -54 callsubr
            hintmask 10101110
            46 callsubr
            hintmask 01101110
            return
          </CharString>
          <CharString index="81">
            103 234 103 return
          </CharString>
          <CharString index="82">
            -165 -85 -86 -189 -189 85 -86 165 hvcurveto
            return
          </CharString>
          <CharString index="83">
            28 18 17 28 30 vvcurveto
            57 -40 46 -80 -80 -40 -46 -57 -30 16 -28 29 -18 vhcurveto
            return
          </CharString>
          <CharString index="84">
            rmoveto
            -117 59 vlineto
            return
          </CharString>
          <CharString index="85">
            rmoveto
            88 73 30 53 46 hvcurveto
            -56 40 64 -27 92 hhcurveto
            126 98 62 131 hvcurveto
            -101 hlineto
            -78 -54 -32 -69 -95 -41 54 112 -5 vhcurveto
            365 40 hlineto
            185 -78 76 -146 -78 -59 -23 -44 -40 vhcurveto
            43 -34 -58 24 -82 hhcurveto
            return
          </CharString>
          <CharString index="86">
            -203 -146 -35 -144 -127 120 -21 70 hvcurveto
            264 327 rmoveto
            98 10 42 42 87 hhcurveto
            71 46 -39 -101 hvcurveto
            -507 -243 rmoveto
            -63 -34 21 51 77 104 16 139 hvcurveto
            -32 vlineto
            -93 -67 -40 -79 vhcurveto
            endchar
          </CharString>
          <CharString index="87">
            81 callgsubr
            hintmask 11100100
            68 hmoveto
            103 294 hlineto
            98 54 40 75 vhcurveto
            37 hlineto
            hintmask 11001100
            98 vlineto
            hintmask 11100100
            0 -20 8 -29 -69 -34 -46 -47 -18 vhcurveto
            -6 hlineto
            hintmask 11010100
            -10 81 rlineto
            -83 hlineto
            1 return
          </CharString>
          <CharString index="88">
            -34 callsubr
            350 111 vstem
            return
          </CharString>
          <CharString index="89">
            -37 callgsubr
            85 132 hstemhm
            65 -26 callsubr
            hintmask 10111100
            return
          </CharString>
          <CharString index="90">
            -38 -36 -24 -15 -36 -38 -21 18 33 hvcurveto
            13 -69 -12 vlineto
            return
          </CharString>
          <CharString index="91">
            rlineto
            47 hlineto
            31 9 -8 -16 -19 -16 -5 -26 hvcurveto
            -96 hlineto
            return
          </CharString>
          <CharString index="92">
            61 callsubr
            -111 return
          </CharString>
          <CharString index="93">
            66 197 67 return
          </CharString>
          <CharString index="94">
            526 -20 return
          </CharString>
          <CharString index="95">
            -15 callsubr
            hlineto
            return
          </CharString>
          <CharString index="96">
            -101 callgsubr
            47 return
          </CharString>
          <CharString index="97">
            -21 686 -20 return
          </CharString>
          <CharString index="98">
            rmoveto
            -12 -8 -6 -22 vhcurveto
            hintmask 1101111010000000
            -13 -59 59 27 hlineto
            hintmask 1101110110000000
            35 3 32 17 37 vvcurveto
            49 -58 11 -41 -23 -31 -3 -5 -22 vhcurveto
            -41 60 vlineto
            20 12 -4 -14 hvcurveto
            hintmask 1110011001000000
            return
          </CharString>
          <CharString index="99">
            -32 callgsubr
            70 132 hstem
            return
          </CharString>
          <CharString index="100">
            43 -12 94 119 94 391 -20 return
          </CharString>
          <CharString index="101">
            rmoveto
            85 hlineto
            return
          </CharString>
          <CharString index="102">
            rlineto
            -107 hlineto
            return
          </CharString>
          <CharString index="103">
            rmoveto
            58 hlineto
            54 151 rlineto
            107 -112 -117 45 vlineto
            endchar
          </CharString>
          <CharString index="104">
            hstemhm
            20 103 -73 105 -88 102 235 102 -51 103 return
          </CharString>
          <CharString index="105">
            244 -12 rmoveto
            68 60 28 54 34 hvcurveto
            7 hlineto
            return
          </CharString>
          <CharString index="106">
            468 96 -357 590 -111 hlineto
            return
          </CharString>
          <CharString index="107">
            -346 21 -31 callgsubr
            return
          </CharString>
          <CharString index="108">
            -88 callgsubr
            hintmask 11111001
            return
          </CharString>
          <CharString index="109">
            588 -21 callgsubr
            return
          </CharString>
          <CharString index="110">
            736 6 callgsubr
            return
          </CharString>
          <CharString index="111">
            77 -44 77 hstemhm
            return
          </CharString>
          <CharString index="112">
            45 114 return
          </CharString>
          <CharString index="113">
            180 -65 callsubr
            return
          </CharString>
          <CharString index="114">
            -274 21 -21 432 106 -12 -20 24 -20 return
          </CharString>
          <CharString index="115">
            -13 callgsubr
            29 97 97 97 30 111 return
          </CharString>
          <CharString index="116">
            59 callsubr
            -12 -20 return
          </CharString>
          <CharString index="117">
            -56 callgsubr
            53 132 34 callgsubr
            return
          </CharString>
          <CharString index="118">
            591 -33 callsubr
            return
          </CharString>
          <CharString index="119">
            590 228 96 -567 -96 228 return
          </CharString>
          <CharString index="120">
            hstemhm
            65 103 -29 97 97 97 -28 103 hintmask 1011110010000000
            return
          </CharString>
          <CharString index="121">
            rmoveto
            90 callsubr
            -84 -132 rlineto
            84 hlineto
            return
          </CharString>
          <CharString index="122">
            -905 -50 callgsubr
            return
          </CharString>
          <CharString index="123">
            250 hmoveto
            33 callgsubr
            return
          </CharString>
          <CharString index="124">
            -457 9 -21 710 -20 hstem
            -228 622 vstem
            -228 -12 -1 callgsubr
            endchar
          </CharString>
          <CharString index="125">
            95 29 47 64 101 vvcurveto
            54 vlineto
            return
          </CharString>
          <CharString index="126">
            76 32 37 61 90 vvcurveto
            54 vlineto
            return
          </CharString>
          <CharString index="127">
            rmoveto
            88 hlineto
            61 80 rlineto
            -29 53 64 -14 76 hhcurveto
            215 130 116 239 121 -34 90 -61 59 hvcurveto
            return
          </CharString>
          <CharString index="128">
            206 -18 rlineto
            99 vlineto
            -206 -17 17 193 rlineto
            -94 hlineto
            17 -193 -205 17 rlineto
            -99 vlineto
            205 18 return
          </CharString>
          <CharString index="129">
            -612 -75 callsubr
            return
          </CharString>
          <CharString index="130">
            98 21 65 callsubr
            return
          </CharString>
          <CharString index="131">
            hstemhm
            48 callsubr
            return
          </CharString>
          <CharString index="132">
            -59 callsubr
            13 117 -92 30 callsubr
            -82 132 hintmask 11011100
            return
          </CharString>
          <CharString index="133">
            60 -44 167 -42 vlineto
            -8 -34 -9 -28 -10 -24 rrcurveto
            -81 -88 vlineto
            26 41 47 99 20 87 rrcurveto
            -73 hlineto
            return
          </CharString>
          <CharString index="134">
            rmoveto
            58 hlineto
            53 151 rlineto
            107 -111 -117 44 vlineto
            return
          </CharString>
          <CharString index="135">
            -10 70 rlineto
            -83 hlineto
            endchar
          </CharString>
          <CharString index="136">
            0 57 72 81 vhcurveto
            hintmask 10101000
            74 56 -60 72 hhcurveto
            93 46 72 0 hvcurveto
            101 vlineto
            0 -58 -72 -81 vhcurveto
            return
          </CharString>
          <CharString index="137">
            132 51 callgsubr
            return
          </CharString>
          <CharString index="138">
            111 vstem
            6 callsubr
            return
          </CharString>
          <CharString index="139">
            rmoveto
            75 53 40 66 41 -24 28 -37 16 hvcurveto
            2 vlineto
            return
          </CharString>
          <CharString index="140">
            -182 57 -28 -21 97 42 return
          </CharString>
          <CharString index="141">
            -107 -182 78 630 -20 return
          </CharString>
          <CharString index="142">
            618 rmoveto
            102 105 -102 hlineto
            return
          </CharString>
          <CharString index="143">
            30 84 rmoveto
            -61 -33 21 51 77 99 16 135 hvcurveto
            -32 vlineto
            -85 -64 -48 -76 vhcurveto
            endchar
          </CharString>
          <CharString index="144">
            -291 218 104 hstem
            36 261 vstem
            36 218 rmoveto
            261 104 -261 hlineto
            endchar
          </CharString>
          <CharString index="145">
            89 52 41 139 139 -52 42 -89 -90 -53 -42 -139 -138 53 -42 90 hvcurveto
            return
          </CharString>
          <CharString index="146">
            rmoveto
            79 hlineto
            -122 200 122 200 rlineto
            -79 hlineto
            -151 -200 rlineto
            endchar
          </CharString>
          <CharString index="147">
            63 callsubr
            111 106 return
          </CharString>
          <CharString index="148">
            rmoveto
            86 hlineto
            54 171 -1 3 rlineto
            -109 hlineto
            return
          </CharString>
          <CharString index="149">
            rmoveto
            103 106 -103 hlineto
            return
          </CharString>
          <CharString index="150">
            38 80 callgsubr
            return
          </CharString>
          <CharString index="151">
            59 36 49 hstemhm
            return
          </CharString>
          <CharString index="152">
            111 vstem
            291 -30 callsubr
            return
          </CharString>
          <CharString index="153">
            -192 79 -83 129 vhcurveto
            return
          </CharString>
          <CharString index="154">
            -124 0 85 356 85 return
          </CharString>
          <CharString index="155">
            68 -26 callsubr
            return
          </CharString>
          <CharString index="156">
            rmoveto
            114 hlineto
            62 167 rlineto
            316 hlineto
            63 -167 rlineto
            118 hlineto
            return
          </CharString>
          <CharString index="157">
            rmoveto
            111 hlineto
            71 295 rlineto
            return
          </CharString>
          <CharString index="158">
            -370 rmoveto
            234 62 -78 hlineto
            return
          </CharString>
          <CharString index="159">
            81 32 40 62 93 vvcurveto
            return
          </CharString>
          <CharString index="160">
            110 196 110 return
          </CharString>
          <CharString index="161">
            45 hlineto
            197 166 rlineto
            21 vlineto
            -197 166 rlineto
            -45 hlineto
            57 return
          </CharString>
          <CharString index="162">
            91 94 37 -52 -133 vhcurveto
            -9 vlineto
            -131 -36 -51 -95 vhcurveto
            endchar
          </CharString>
          <CharString index="163">
            -21 callgsubr
            57 76 56 -76 rlineto
            97 hlineto
            return
          </CharString>
          <CharString index="164">
            132 rlineto
            146 -115 -146 vlineto
            return
          </CharString>
          <CharString index="165">
            87 -54 -21 451 87 185 -20 hstemhm
            return
          </CharString>
          <CharString index="166">
            -21 450 88 return
          </CharString>
          <CharString index="167">
            -20 111 106 hstem
            68 57 callgsubr
            return
          </CharString>
          <CharString index="168">
            111 686 return
          </CharString>
          <CharString index="169">
            rmoveto
            26 34 6 8 18 hvcurveto
            70 -46 vlineto
            -29 -14 16 30 hvcurveto
            return
          </CharString>
          <CharString index="170">
            -182 82 121 -31 callgsubr
            return
          </CharString>
          <CharString index="171">
            -291 591 132 hstem
            return
          </CharString>
          <CharString index="172">
            -21 275 94 222 95 return
          </CharString>
          <CharString index="173">
            758 rmoveto
            66 hlineto
            return
          </CharString>
          <CharString index="174">
            94 604 -20 return
          </CharString>
          <CharString index="175">
            -273 -159 63 341 38 10 38 341 63 hstemhm
            return
          </CharString>
          <CharString index="176">
            -21 -89 -28 -76 -38 -67 rrcurveto
            -55 155 vlineto
            endchar
          </CharString>
          <CharString index="177">
            98 -12 94 549 55 0 -20 return
          </CharString>
          <CharString index="178">
            -10 callsubr
            hstemhm
            84 111 return
          </CharString>
          <CharString index="179">
            103 vstem
            68 hmoveto
            103 return
          </CharString>
          <CharString index="180">
            75 105 362 105 return
          </CharString>
          <CharString index="181">
            5 callgsubr
            hlineto
            return
          </CharString>
          <CharString index="182">
            47 10 -42 -68 vhcurveto
            -10 vlineto
            -67 -10 -42 -47 vhcurveto
            return
          </CharString>
          <CharString index="183">
            hstem
            5 callsubr
            179 102 180 114 vstem
            return
          </CharString>
          <CharString index="184">
            67 callgsubr
            vhcurveto
            return
          </CharString>
          <CharString index="185">
            98 -32 callgsubr
            return
          </CharString>
          <CharString index="186">
            118 rlineto
            93 -101 -102 return
          </CharString>
          <CharString index="187">
            -8 11 -19 13 return
          </CharString>
          <CharString index="188">
            -21 723 71 callgsubr
            return
          </CharString>
          <CharString index="189">
            43 37 14 47 vhcurveto
            55 vlineto
            -91 -76 -18 -94 return
          </CharString>
          <CharString index="190">
            -124 -208 918 hstem
            209 84 vstem
            return
          </CharString>
          <CharString index="191">
            -12 vlineto
            -177 -85 -77 -146 vhcurveto
            endchar
          </CharString>
          <CharString index="192">
            -47 callsubr
            hstemhm
            return
          </CharString>
          <CharString index="193">
            197 rlineto
            45 vlineto
            -135 return
          </CharString>
          <CharString index="194">
            90 callgsubr
            120 return
          </CharString>
          <CharString index="195">
            77 -13 callgsubr
            return
          </CharString>
          <CharString index="196">
            -20 -34 callsubr
            return
          </CharString>
          <CharString index="197">
            -1 3 -5 callsubr
            return
          </CharString>
          <CharString index="198">
            66 44 111 42 67 hintmask 00000000
            hintmask 11101100
            return
          </CharString>
          <CharString index="199">
            522 94 hstemhm
            47 109 -92 111 return
          </CharString>
          <CharString index="200">
            -346 735 -20 hstem
            1 276 vstem
            return
          </CharString>
          <CharString index="201">
            -32 callgsubr
            70 44 callsubr
            return
          </CharString>
        <CharString name=".notdef">
          -123 0 50 600 50 hstem
          0 50 400 50 vstem
          0 vmoveto
          500 700 -500 hlineto
          250 -305 rmoveto
          -170 255 rlineto
          340 hlineto
          -370 -555 rmoveto
          510 vlineto
          170 -255 rlineto
          230 -255 rmoveto
          -170 255 170 255 rlineto
          -370 -555 rmoveto
          170 255 170 -255 rlineto
          endchar
        </CharString>
        <CharString name="A">
          -69 callgsubr
          43 callgsubr
          5 hmoveto
          -106 callsubr
          endchar
        </CharString>
        <CharString name="AE">
          376 0 95 72 95 41 4 callgsubr
          hstem
          -2 948 vstem
          -2 hmoveto
          -25 callgsubr
        </CharString>
        <CharString name="AEacute">
          376 0 95 72 95 41 4 callgsubr
          50 132 hstem
          -2 948 vstem
          457 -68 callgsubr
          -543 -868 rmoveto
          -25 callgsubr
        </CharString>
        <CharString name="Aacute">
          -69 callgsubr
          50 132 43 callgsubr
          299 -68 callgsubr
          -378 -868 -103 callsubr
        </CharString>
        <CharString name="Abreve">
          -69 callgsubr
          59 72 43 callgsubr
          341 745 -100 callsubr
          endchar
        </CharString>
        <CharString name="Acircumflex">
          -69 callgsubr
          47 135 43 callgsubr
          188 -65 callsubr
          -289 -868 -103 callsubr
        </CharString>
        <CharString name="Adieresis">
          -69 callgsubr
          80 102 hstem
          196 97 97 97 vstem
          196 -46 callsubr
          -385 -868 -103 callsubr
        </CharString>
        <CharString name="Agrave">
          -69 callgsubr
          50 132 43 callgsubr
          299 -30 callsubr
          -186 -865 -103 callsubr
        </CharString>
        <CharString name="Amacron">
          -69 callgsubr
          81 77 43 callgsubr
          189 767 -47 callgsubr
          -184 -844 -103 callsubr
        </CharString>
        <CharString name="Aogonek">
          60 -182 66 137 -21 167 95 329 95 hstem
          510 86 vstem
          610 -182 rmoveto
          22 24 5 9 23 hvcurveto
          52 -34 vlineto
          -33 -16 17 30 28 18 25 19 16 hvcurveto
          45 hlineto
          -266 686 rlineto
          -140 hlineto
          -267 -686 rlineto
          114 hlineto
          62 167 rlineto
          316 hlineto
          63 -167 rlineto
          -27 -23 -23 -27 -43 vvcurveto
          -68 51 -21 49 vhcurveto
          -394 444 rmoveto
          76 203 14 39 20 58 10 29 rlinecurve
          5 hlineto
          45 -128 75 -201 rlineto
          endchar
        </CharString>
        <CharString name="Aring">
          -69 callgsubr
          22 49 97 49 hstemhm
          244 49 98 49 hintmask 00000000
          hintmask 11111110
          342 708 -71 callgsubr
          -337 -757 49 callsubr
          hintmask 11101110
          -266 686 rlineto
          -140 hlineto
          -56 -424 rmoveto
          76 203 14 39 20 58 10 29 rlinecurve
          5 hlineto
          45 -128 75 -201 rlineto
          endchar
        </CharString>
        <CharString name="Aringacute">
          60 21 -21 167 95 429 -20 118 48 24 132 hstemhm
          244 49 97 49 hintmask 00000000
          hintmask 11111110
          298 861 -96 callgsubr
          -377 -993 49 callsubr
          -262 676 rlineto
          hintmask 11110110
          15 16 8 23 25 vvcurveto
          54 -37 43 -60 -61 -37 -43 -54 -25 9 -23 15 -16 vhcurveto
          74 15 rmoveto
          -29 -20 22 27 27 19 22 30 28 20 -22 -27 -27 -19 -22 -29 hvcurveto
          -126 -429 rmoveto
          76 203 14 39 20 58 10 29 rlinecurve
          5 hlineto
          45 -128 75 -201 rlineto
          endchar
        </CharString>
        <CharString name="Atilde">
          -69 callgsubr
          72 4 callsubr
          177 -14 callsubr
          hintmask 00000000
          hintmask 11110110
          177 66 callsubr
          hintmask 11101110
          -66 callgsubr
          hintmask 11110110
          -53 callsubr
          hintmask 11101110
          -73 callsubr
          hintmask 11110110
          -54 callgsubr
          hhcurveto
          hintmask 11101110
          -52 callgsubr
          hintmask 11110110
          -55 callsubr
          hintmask 11101110
          -172 -758 -103 callsubr
        </CharString>
        <CharString name="B">
          60 0 95 209 95 192 95 -13 callgsubr
          318 113 -94 113 hintmask 11110100
          75 hmoveto
          350 hlineto
          119 92 56 129 96 -57 58 -76 17 hvcurveto
          4 vlineto
          hintmask 11111000
          65 21 49 57 79 vvcurveto
          101 -79 68 -113 vhcurveto
          -350 hlineto
          111 -287 rmoveto
          192 221 vlineto
          58 39 -30 -66 -56 -40 -40 -64 hvcurveto
          -214 -304 rmoveto
          209 223 vlineto
          hintmask 11110100
          75 39 -37 -69 -73 -43 -30 -63 hvcurveto
          endchar
        </CharString>
        <CharString name="C">
          98 -61 callgsubr
          -3 callgsubr
          hintmask 11101000
          379 -12 rmoveto
          172 127 82 178 hvcurveto
          -109 hlineto
          -110 -74 -56 -115 -150 -71 77 179 vhcurveto
          11 vlineto
          177 1 70 78 150 hhcurveto
          hintmask 11110000
          111 74 -57 -111 hvcurveto
          113 hlineto
          177 -128 85 -171 -216 -118 -116 -239 vhcurveto
          hintmask 11101000
          -242 118 -113 216 vhcurveto
          endchar
        </CharString>
        <CharString name="CR">
          -624 endchar
        </CharString>
        <CharString name="Cacute">
          98 9 callgsubr
          -3 callgsubr
          hintmask 11110100
          16 callgsubr
          -23 -86 callgsubr
        </CharString>
        <CharString name="Cacute.loclPLK">
          98 9 callgsubr
          -3 callgsubr
          hintmask 11110100
          318 736 -33 callsubr
          34 -86 callgsubr
        </CharString>
        <CharString name="Ccaron">
          98 -61 callgsubr
          35 135 -3 callgsubr
          hintmask 11110100
          313 733 -99 callgsubr
          172 -86 callgsubr
        </CharString>
        <CharString name="Ccedilla">
          98 33 callsubr
          24 93 522 94 74 callgsubr
          256 82 68 113 -109 109 hintmask 1001111010000000
          380 82 rmoveto
          -150 -71 77 179 hvcurveto
          11 vlineto
          177 1 70 78 150 hhcurveto
          hintmask 1001111100000000
          111 74 -57 -111 hvcurveto
          113 hlineto
          177 -128 85 -171 -216 -118 -116 -239 -226 103 -114 190 -14 vhcurveto
          hintmask 1011111010000000
          -11 -66 rlineto
          48 hlineto
          30 10 -8 -16 -19 -17 -5 -26 hvcurveto
          -96 hlineto
          hintmask 0101111010000000
          -49 vlineto
          hintmask 1011111010000000
          11 callgsubr
          -50 3 hvcurveto
          hintmask 1001111010000000
          3 24 rlineto
          158 8 113 83 168 vvcurveto
          -109 hlineto
          -110 -74 -56 -115 vhcurveto
          endchar
        </CharString>
        <CharString name="Ccircumflex">
          98 -61 callgsubr
          35 135 -3 callgsubr
          hintmask 11110100
          44 callgsubr
          66 -86 callgsubr
        </CharString>
        <CharString name="Cdotaccent">
          98 -61 callgsubr
          65 105 74 callgsubr
          151 102 153 113 -109 109 hintmask 11111010
          310 763 rmoveto
          102 105 -102 hlineto
          69 -880 rmoveto
          172 127 82 178 hvcurveto
          -109 hlineto
          -110 -74 -56 -115 -150 -71 77 179 vhcurveto
          11 vlineto
          177 1 70 78 150 hhcurveto
          hintmask 11111100
          111 74 -57 -111 hvcurveto
          113 hlineto
          177 -128 85 -171 -216 -118 -116 -239 vhcurveto
          hintmask 11111010
          -242 118 -113 216 vhcurveto
          endchar
        </CharString>
        <CharString name="D">
          98 0 95 496 95 -34 callsubr
          377 114 vstem
          75 hmoveto
          -56 callsubr
          endchar
        </CharString>
        <CharString name="Dcaron">
          98 0 95 496 95 47 79 callgsubr
          377 114 vstem
          313 733 -99 callgsubr
          -132 -868 rmoveto
          -56 callsubr
          endchar
        </CharString>
        <CharString name="Dcroat">
          -48 callgsubr
        </CharString>
        <CharString name="E">
          -64 callgsubr
          -34 callsubr
          vstem
          75 hmoveto
          -96 callsubr
          endchar
        </CharString>
        <CharString name="Eacute">
          -64 callgsubr
          50 132 -34 callsubr
          vstem
          291 -68 callgsubr
          -300 -36 callsubr
        </CharString>
        <CharString name="Ebreve">
          -64 callgsubr
          59 72 -34 callsubr
          vstem
          333 -66 callsubr
          -258 -745 -84 callsubr
        </CharString>
        <CharString name="Ecaron">
          -64 callgsubr
          47 79 callgsubr
          vstem
          286 733 -99 callgsubr
          -105 -36 callsubr
        </CharString>
        <CharString name="Ecircumflex">
          -64 callgsubr
          47 135 hstem
          75 111 vstem
          180 733 -76 callsubr
          endchar
        </CharString>
        <CharString name="Edieresis">
          -64 callgsubr
          80 102 -13 callgsubr
          2 97 97 97 hintmask 00000000
          hintmask 11110110
          55 callgsubr
          hintmask 11111010
          -307 -36 callsubr
        </CharString>
        <CharString name="Edotaccent">
          -64 callgsubr
          77 105 -34 callsubr
          97 102 vstem
          283 763 rmoveto
          102 105 -102 hlineto
          -208 -36 callsubr
        </CharString>
        <CharString name="Egrave">
          -64 callgsubr
          50 132 hstem
          75 45 callsubr
          -108 -865 -84 callsubr
        </CharString>
        <CharString name="Emacron">
          -64 callgsubr
          81 77 -34 callsubr
          vstem
          181 767 -47 callgsubr
          -106 -844 -84 callsubr
        </CharString>
        <CharString name="Eng">
          76 callgsubr
          107 360 105 vstem
          528 -182 rmoveto
          92 27 64 63 hvcurveto
          741 -105 -436 vlineto
          1 -50 -5 -2 -5 8 -14 22 -10 13 rlinecurve
          -332 445 rlineto
          -102 -686 105 hlineto
          2 441 rlineto
          17 -2 23 -1 11 vhcurveto
          5 2 7 80 callsubr
          -16 rlinecurve
          327 -451 rlineto
          -53 vlineto
          -30 -16 -17 -30 vhcurveto
          -46 -69 hlineto
          -6 19 33 -7 26 hhcurveto
          endchar
        </CharString>
        <CharString name="Eogonek">
          43 -182 66 116 -55 callgsubr
          -34 callsubr
          259 168 vstem
          546 -182 rmoveto
          22 22 5 9 23 hvcurveto
          52 -30 vlineto
          -37 -14 23 24 27 31 37 50 5 hvcurveto
          95 -427 208 377 95 -377 193 421 95 -532 -686 437 vlineto
          -41 -22 -26 -30 -44 vvcurveto
          -66 59 -20 42 vhcurveto
          endchar
        </CharString>
        <CharString name="Eth">
          -48 callgsubr
        </CharString>
        <CharString name="Euro">
          -68 -12 85 165 70 70 70 165 85 -12 -20 hstemhm
          82 108 hintmask 11110100
          428 -12 rmoveto
          32 31 5 7 30 hvcurveto
          83 vlineto
          -6 -24 -25 -4 -27 hhcurveto
          -113 -95 54 111 -33 hvcurveto
          246 70 -260 hlineto
          -1 11 -1 12 0 12 0 12 1 12 11 flex1
          260 70 -246 hlineto
          111 33 95 54 113 hhcurveto
          27 25 -4 -6 24 hvcurveto
          hintmask 11101100
          83 vlineto
          hintmask 11110100
          8 -30 -31 4 -32 hhcurveto
          -177 -122 -92 -158 -37 hvcurveto
          -76 -70 66 hlineto
          -1 -12 0 -11 0 -12 0 -12 0 -12 -11 flex1
          -66 -70 76 hlineto
          -158 37 122 -92 177 hhcurveto
          endchar
        </CharString>
        <CharString name="F">
          -13 21 -21 293 95 203 95 -34 callsubr
          vstem
          75 hmoveto
          111 293 342 95 -342 203 379 95 -490 hlineto
          endchar
        </CharString>
        <CharString name="G">
          -29 callgsubr
          -2 callgsubr
          hintmask 10111010
          368 268 -80 callgsubr
          hintmask 10111100
          -85 callsubr
          hintmask 10111010
          101 78 27 61 57 hvcurveto
          hintmask 01111010
          9 -76 rlineto
          82 362 -342 hlineto
          endchar
        </CharString>
        <CharString name="G_tilde.loclGUA">
          -29 callgsubr
          60 4 callsubr
          45 115 64 -14 callsubr
          43 113 -110 110 hintmask 1011011100100000
          320 791 rmoveto
          hintmask 1011101110100000
          -53 callsubr
          hintmask 1011011110100000
          -73 callsubr
          hintmask 1011101110100000
          -54 callgsubr
          hhcurveto
          hintmask 1011011100100000
          -52 callgsubr
          hintmask 1011101100100000
          -55 callsubr
          66 hlineto
          hintmask 1011011100100000
          -66 callgsubr
          48 -523 -80 callgsubr
          hintmask 1011011101000000
          -85 callsubr
          hintmask 1011011100100000
          101 78 27 61 57 hvcurveto
          hintmask 0111011100100000
          9 -76 rlineto
          82 362 -342 hlineto
          endchar
        </CharString>
        <CharString name="Gbreve">
          -29 callgsubr
          47 72 -2 callgsubr
          hintmask 10111101
          388 -66 callsubr
          -20 -477 -88 callsubr
        </CharString>
        <CharString name="Gcaron">
          -29 callgsubr
          35 135 -2 callgsubr
          hintmask 10111101
          437 733 rmoveto
          105 135 rlineto
          -97 hlineto
          -56 -76 -57 76 rlineto
          -97 hlineto
          106 -135 rlineto
          27 -465 -88 callsubr
        </CharString>
        <CharString name="Gcircumflex">
          -29 callgsubr
          35 135 -2 callgsubr
          hintmask 10111101
          389 809 rmoveto
          -101 callgsubr
          -106 -135 rlineto
          97 hlineto
          36 -465 -88 callsubr
        </CharString>
        <CharString name="Gcommaaccent">
          154 -146 94 40 94 -61 -21 268 94 242 94 hstemhm
          45 115 177 103 157 113 -110 110 hintmask 1101111010000000
          368 268 -80 callgsubr
          hintmask 1101111100000000
          -85 callsubr
          hintmask 1101111010000000
          101 78 27 61 57 hvcurveto
          hintmask 1011111010000000
          9 -76 rlineto
          82 362 -342 hlineto
          -31 -508 rmoveto
          43 hlineto
          -42 -84 rlineto
          53 hlineto
          49 93 rlineto
          85 -103 vlineto
          endchar
        </CharString>
        <CharString name="Gdotaccent">
          -29 callgsubr
          65 105 hstemhm
          45 115 178 102 157 113 -110 110 hintmask 1011111010000000
          440 868 rmoveto
          -102 -105 102 hlineto
          -72 -495 -80 callgsubr
          hintmask 1011111100000000
          -85 callsubr
          hintmask 1011111010000000
          101 78 27 61 57 hvcurveto
          hintmask 0111111010000000
          9 -76 rlineto
          82 362 -342 hlineto
          endchar
        </CharString>
        <CharString name="H">
          98 21 -21 303 96 287 -20 hstem
          75 111 350 17 callgsubr
          endchar
        </CharString>
        <CharString name="Hbar">
          98 21 -21 303 96 121 78 -78 166 -13 callgsubr
          350 111 hintmask 11011100
          75 hmoveto
          111 303 350 -303 111 520 67 hlineto
          hintmask 11101100
          78 -67 91 callgsubr
          -350 91 callgsubr
          -67 vlineto
          hintmask 11011100
          -78 67 vlineto
          111 -121 rmoveto
          121 350 -121 vlineto
          endchar
        </CharString>
        <CharString name="Hcircumflex">
          98 21 -21 303 96 287 -20 67 135 -19 callsubr
          44 callgsubr
          -238 -868 rmoveto
          32 callgsubr
          endchar
        </CharString>
        <CharString name="I">
          0 callgsubr
          73 callgsubr
          84 hmoveto
          -12 callsubr
          endchar
        </CharString>
        <CharString name="IJ">
          171 -12 94 -61 71 callsubr
          111 53 callsubr
          hintmask 00000000
          hintmask 01111100
          84 hmoveto
          -12 callsubr
          hintmask 10111100
          430 -698 -72 callsubr
        </CharString>
        <CharString name="Iacute">
          -346 -8 callsubr
          84 111 vstem
          96 -68 callgsubr
          -96 -868 -45 callgsubr
        </CharString>
        <CharString name="Iacute_J.loclNLD">
          171 -12 94 -61 -10 callsubr
          70 132 hstemhm
          84 111 111 53 callsubr
          hintmask 10111110
          96 -68 callgsubr
          444 -132 -96 callgsubr
          hintmask 01111110
          -624 -868 rmoveto
          -12 callsubr
          hintmask 10111110
          430 -698 -72 callsubr
        </CharString>
        <CharString name="Ibreve">
          0 callgsubr
          79 72 73 callgsubr
          138 -66 callsubr
          -54 -745 -45 callgsubr
        </CharString>
        <CharString name="Icircumflex">
          0 callgsubr
          67 135 73 callgsubr
          -15 -65 callsubr
          -7 -868 -45 callgsubr
        </CharString>
        <CharString name="Idieresis">
          0 callgsubr
          100 102 hstemhm
          -7 97 -6 111 -8 97 hintmask 00000000
          hintmask 11110100
          -7 -46 callsubr
          hintmask 11101000
          -103 -868 -45 callgsubr
        </CharString>
        <CharString name="Idotaccent">
          0 callgsubr
          97 105 hstemhm
          84 111 -107 102 hintmask 00000000
          hintmask 11101000
          88 763 rmoveto
          102 105 -102 hlineto
          hintmask 11110000
          -4 -868 -45 callgsubr
        </CharString>
        <CharString name="Igrave">
          -346 -8 callsubr
          84 111 vstem
          96 -30 callsubr
          96 -865 -45 callgsubr
        </CharString>
        <CharString name="Imacron">
          0 callgsubr
          101 77 73 callgsubr
          -14 767 -47 callgsubr
          98 -844 -45 callgsubr
        </CharString>
        <CharString name="Iogonek">
          -346 -190 66 -52 52 -31 -21 197 71 callsubr
          hintmask 00000000
          hintmask 01011100
          177 -124 rmoveto
          30 callgsubr
          33 686 -111 -686 6 hlineto
          hintmask 10011100
          -27 -25 -23 -29 -47 77 callsubr
          hintmask 00111100
          21 21 5 9 22 hvcurveto
          hintmask 01011100
          52 vlineto
          endchar
        </CharString>
        <CharString name="Itilde">
          0 callgsubr
          92 4 callsubr
          -26 91 callsubr
          -26 66 callsubr
          hintmask 11011100
          -66 callgsubr
          hintmask 11100110
          -53 callsubr
          hintmask 11010110
          -73 callsubr
          hintmask 11100110
          -54 callgsubr
          hhcurveto
          hintmask 11011100
          -52 callgsubr
          hintmask 11101100
          -55 callsubr
          hintmask 11010100
          110 -758 -45 callgsubr
        </CharString>
        <CharString name="J">
          -107 3 callgsubr
          hstem
          28 53 callsubr
          vstem
          236 -12 -72 callsubr
        </CharString>
        <CharString name="Jcircumflex">
          -107 3 callgsubr
          67 135 hstem
          28 53 callsubr
          vstem
          235 -65 callsubr
          -105 -880 -72 callsubr
        </CharString>
        <CharString name="K">
          60 21 -21 686 89 callsubr
          -4 callgsubr
          endchar
        </CharString>
        <CharString name="Kcommaaccent">
          60 72 callgsubr
          686 89 callsubr
          104 103 -4 callgsubr
          216 -916 rmoveto
          -63 callgsubr
        </CharString>
        <CharString name="L">
          0 96 590 89 callsubr
          vstem
          75 hmoveto
          -1 callsubr
          endchar
        </CharString>
        <CharString name="Lacute">
          0 96 590 -20 70 132 -34 callsubr
          vstem
          88 -68 callgsubr
          -97 -868 rmoveto
          -1 callsubr
          endchar
        </CharString>
        <CharString name="Lcaron">
          0 96 488 102 -34 callsubr
          144 102 vstem
          75 hmoveto
          -1 callsubr
          255 -211 rmoveto
          53 hlineto
          49 118 rlineto
          93 -102 -102 41 vlineto
          endchar
        </CharString>
        <CharString name="Lcommaaccent">
          -146 94 52 96 590 89 callsubr
          72 103 vstem
          75 hmoveto
          -1 callsubr
          184 -916 rmoveto
          -63 callgsubr
        </CharString>
        <CharString name="Ldot">
          0 96 313 117 160 89 callsubr
          163 112 vstem
          75 hmoveto
          -1 callsubr
          274 -277 -34 callgsubr
          endchar
        </CharString>
        <CharString name="Lslash">
          0 96 590 89 callsubr
          vstem
          75 hmoveto
          468 96 -357 236 hlineto
          159 105 rlineto
          88 vlineto
          -159 -105 rlineto
          266 -111 -339 vlineto
          -72 -48 rlineto
          -87 vlineto
          72 47 rlineto
          endchar
        </CharString>
        <CharString name="M">
          209 0 127 -106 -21 571 115 hstemhm
          75 105 467 111 hintmask 01111000
          75 hmoveto
          105 448 hlineto
          28 -3 95 0 vhcurveto
          5 hlineto
          3 -9 8 -38 8 -24 163 -500 rcurveline
          97 hlineto
          165 500 8 26 8 36 2 9 rlinecurve
          7 hlineto
          0 -4 -102 -21 vvcurveto
          -448 61 callsubr
          -164 vlineto
          -143 -440 rlineto
          hintmask 10111000
          -13 -37 -17 -82 0 vvcurveto
          -4 hlineto
          0 -17 76 -14 43 vhcurveto
          -144 440 rlineto
          -167 hlineto
          endchar
        </CharString>
        <CharString name="N">
          78 callsubr
          hstem
          73 callsubr
          vstem
          -18 callgsubr
          endchar
        </CharString>
        <CharString name="NULL">
          -624 endchar
        </CharString>
        <CharString name="Nacute">
          98 -8 callsubr
          73 callsubr
          vstem
          16 callgsubr
          -327 -868 rmoveto
          -95 callgsubr
          endchar
        </CharString>
        <CharString name="Nacute.loclPLK">
          98 -8 callsubr
          73 callsubr
          vstem
          318 736 -33 callsubr
          -270 -868 rmoveto
          -95 callgsubr
          endchar
        </CharString>
        <CharString name="Ncaron">
          78 callsubr
          67 135 hstem
          73 callsubr
          vstem
          313 733 -99 callgsubr
          -132 -868 rmoveto
          -95 callgsubr
          endchar
        </CharString>
        <CharString name="Ncommaaccent">
          98 72 callgsubr
          686 -20 hstem
          75 105 129 103 130 105 vstem
          -18 callgsubr
          235 -916 rmoveto
          -63 callgsubr
        </CharString>
        <CharString name="Ntilde">
          78 callsubr
          92 4 callsubr
          75 105 16 -14 callsubr
          16 105 -27 callgsubr
          -121 -758 rmoveto
          -95 callgsubr
          endchar
        </CharString>
        <CharString name="O">
          -59 callsubr
          -43 callgsubr
          389 -12 -107 callgsubr
          endchar
        </CharString>
        <CharString name="OE">
          376 -12 94 -82 93 211 93 196 93 -82 94 74 callgsubr
          343 110 hintmask 00000000
          hintmask 10110110
          319 -12 rmoveto
          75 62 27 54 46 hvcurveto
          hintmask 01110110
          -69 444 93 -334 211 275 93 -275 196 327 93 -437 vlineto
          hintmask 01101110
          -69 vlineto
          54 -46 -60 27 -77 hhcurveto
          -172 -102 -119 -236 hvcurveto
          hintmask 10110110
          -236 102 -119 172 vhcurveto
          18 94 rmoveto
          -119 -59 74 187 hvcurveto
          hintmask 01101110
          187 59 74 119 102 63 -69 -192 vhcurveto
          hintmask 10110110
          -192 -63 -69 -102 vhcurveto
          endchar
        </CharString>
        <CharString name="Oacute">
          -37 callsubr
          346 -68 callgsubr
          -41 -880 -107 callgsubr
          endchar
        </CharString>
        <CharString name="Oacute.loclPLK">
          -37 callsubr
          346 736 -33 callsubr
          16 -880 -107 callgsubr
          endchar
        </CharString>
        <CharString name="Obreve">
          -59 callsubr
          47 72 -43 callgsubr
          388 -66 callsubr
          1 -757 -107 callgsubr
          endchar
        </CharString>
        <CharString name="Ocircumflex">
          -59 callsubr
          35 135 -43 callgsubr
          235 -65 callsubr
          48 -880 -107 callgsubr
          endchar
        </CharString>
        <CharString name="Odieresis">
          -59 callsubr
          68 102 hstem
          5 callsubr
          84 97 97 97 86 114 vstem
          243 -46 callsubr
          -48 -880 -107 callgsubr
          endchar
        </CharString>
        <CharString name="Ograve">
          -37 callsubr
          346 -30 callsubr
          151 -877 -107 callgsubr
          endchar
        </CharString>
        <CharString name="Ohorn">
          -59 callsubr
          13 117 51 callgsubr
          -82 132 hintmask 00000000
          hintmask 11110100
          784 774 18 callgsubr
          hintmask 11010100
          -71 callsubr
          hintmask 11011000
          -30 callgsubr
          hintmask 11110100
          52 callsubr
          hintmask 11011000
          -79 callgsubr
          endchar
        </CharString>
        <CharString name="Ohungarumlaut">
          -37 callsubr
          271 736 -59 callgsubr
          -99 -880 -107 callgsubr
          endchar
        </CharString>
        <CharString name="Omacron">
          -59 callsubr
          69 77 -43 callgsubr
          236 767 -47 callgsubr
          153 -856 -107 callgsubr
          endchar
        </CharString>
        <CharString name="Oslash">
          -59 callsubr
          37 -20 -43 callgsubr
          47 -49 20 callsubr
          -52 callsubr
        </CharString>
        <CharString name="Oslashacute">
          -59 callsubr
          37 -20 21 30 callsubr
          hintmask 00000000
          hintmask 11011100
          346 -68 callgsubr
          -383 -917 20 callsubr
          hintmask 11101100
          -52 callsubr
        </CharString>
        <CharString name="Otilde">
          -59 callsubr
          60 77 -44 77 74 callgsubr
          65 -14 callsubr
          66 114 hintmask 11101101
          224 66 callsubr
          hintmask 11011101
          -66 callgsubr
          hintmask 11101111
          -53 callsubr
          hintmask 11011111
          -73 callsubr
          hintmask 11101111
          -54 callgsubr
          hhcurveto
          hintmask 11011101
          -52 callgsubr
          hintmask 11101101
          -55 callsubr
          165 -770 -107 callgsubr
          endchar
        </CharString>
        <CharString name="P">
          43 21 -21 255 95 241 95 -34 callsubr
          328 112 vstem
          75 hmoveto
          111 255 218 hlineto
          141 81 86 131 128 -73 86 -146 hvcurveto
          -332 hlineto
          111 -336 rmoveto
          241 214 vlineto
          75 39 -44 -75 -76 -44 -46 -70 hvcurveto
          endchar
        </CharString>
        <CharString name="Q">
          -59 callsubr
          -43 callgsubr
          549 -130 rmoveto
          152 hlineto
          -151 146 rlineto
          117 47 67 109 171 vvcurveto
          239 -130 116 -215 -214 -130 -116 -239 -239 130 -116 214 14 14 1 1 13 vhcurveto
          -41 92 rmoveto
          -145 -85 77 177 hvcurveto
          12 vlineto
          179 1 85 77 144 hhcurveto
          145 85 -77 -179 1 hvcurveto
          84 callsubr
        </CharString>
        <CharString name="R">
          23 callsubr
          -34 callsubr
          355 -28 callgsubr
          endchar
        </CharString>
        <CharString name="Racute">
          23 callsubr
          50 132 -34 callsubr
          355 112 vstem
          16 callgsubr
          -327 -868 rmoveto
          -95 callsubr
          endchar
        </CharString>
        <CharString name="Rcaron">
          23 callsubr
          47 79 callgsubr
          355 112 vstem
          313 733 -99 callgsubr
          -132 -868 rmoveto
          -95 callsubr
          endchar
        </CharString>
        <CharString name="Rcommaaccent">
          98 -146 94 73 65 callsubr
          -34 callsubr
          123 103 -32 callsubr
          -599 rmoveto
          -63 callgsubr
        </CharString>
        <CharString name="S">
          43 -12 94 522 94 -16 callgsubr
          hintmask 00000000
          hintmask 11100100
          331 -12 rmoveto
          166 121 57 154 hvcurveto
          hintmask 11010100
          245 -443 -77 151 vvcurveto
          58 65 28 96 vhcurveto
          hintmask 11011000
          -77 callsubr
          hintmask 11010100
          -251 444 88 -166 vvcurveto
          -64 -59 -37 -119 vhcurveto
          hintmask 11100100
          -104 -70 39 76 hvcurveto
          6 2 12 2 vvcurveto
          -110 hlineto
          -4 -1 -10 -7 vvcurveto
          -148 131 -60 153 vhcurveto
          endchar
        </CharString>
        <CharString name="Sacute">
          43 9 callgsubr
          -16 callgsubr
          hintmask 11101010
          291 -68 callgsubr
          hintmask 11110010
          -44 -93 callgsubr
        </CharString>
        <CharString name="Sacute.loclPLK">
          43 9 callgsubr
          -16 callgsubr
          hintmask 11101010
          291 736 -33 callsubr
          hintmask 11110010
          13 -93 callgsubr
        </CharString>
        <CharString name="Scaron">
          43 -61 callgsubr
          35 135 -16 callgsubr
          hintmask 11101010
          286 733 -99 callgsubr
          hintmask 11110010
          151 -93 callgsubr
        </CharString>
        <CharString name="Scedilla">
          43 33 callsubr
          24 93 92 callsubr
          202 83 31 108 -91 110 hintmask 1001101101000000
          337 -182 rmoveto
          49 74 14 67 hvcurveto
          hintmask 1011101101000000
          46 -43 17 -51 3 vhcurveto
          hintmask 1001101101000000
          4 24 rlineto
          145 9 103 59 142 245 -443 -77 151 vvcurveto
          58 65 28 96 vhcurveto
          hintmask 1001101110000000
          -77 callsubr
          hintmask 1001101101000000
          -251 444 88 -166 vvcurveto
          -64 -59 -37 -119 vhcurveto
          hintmask 1001110101000000
          -104 -70 39 76 hvcurveto
          6 2 12 2 vvcurveto
          -110 hlineto
          -4 -1 -10 -7 vvcurveto
          -138 114 -61 140 -8 vhcurveto
          hintmask 1011101101000000
          -11 -66 rlineto
          48 hlineto
          30 9 -8 -16 -19 -16 -5 -26 hvcurveto
          -96 hlineto
          hintmask 0101101101000000
          -49 vlineto
          hintmask 1001101101000000
          -5 28 37 -3 33 hhcurveto
          endchar
        </CharString>
        <CharString name="Scircumflex">
          43 -61 callgsubr
          35 135 -16 callgsubr
          hintmask 11101010
          6 callsubr
          hintmask 11110010
          45 -93 callgsubr
        </CharString>
        <CharString name="Scommaaccent">
          43 -146 94 40 94 92 callsubr
          107 103 -63 callsubr
          -48 -218 rmoveto
          hintmask 11101101
          -63 callgsubr
        </CharString>
        <CharString name="T">
          -13 21 -21 590 96 hstem
          250 111 vstem
          16 callsubr
          endchar
        </CharString>
        <CharString name="Tbar">
          -13 21 -21 372 78 140 96 hstem
          250 111 vstem
          250 hmoveto
          111 372 100 78 -100 140 228 96 -567 -96 228 -140 -100 -78 100 hlineto
          endchar
        </CharString>
        <CharString name="Tcaron">
          -13 21 -21 590 96 47 135 hstem
          250 111 vstem
          258 733 -99 callgsubr
          98 -868 rmoveto
          33 callgsubr
          endchar
        </CharString>
        <CharString name="Thorn">
          43 21 -21 139 96 240 96 -96 211 -13 callgsubr
          328 112 hintmask 11101100
          75 hmoveto
          111 139 218 hlineto
          141 81 87 131 128 -73 86 -146 hvcurveto
          -221 hlineto
          hintmask 11011100
          115 -111 vlineto
          111 -451 rmoveto
          hintmask 11101100
          240 214 vlineto
          75 39 -44 -75 -75 -44 -46 -70 hvcurveto
          endchar
        </CharString>
        <CharString name="U">
          -15 callgsubr
          -19 callsubr
          360 -12 rmoveto
          -104 callgsubr
          endchar
        </CharString>
        <CharString name="Uacute">
          -17 callgsubr
          16 callgsubr
          -42 -880 rmoveto
          -104 callgsubr
          endchar
        </CharString>
        <CharString name="Ubreve">
          -15 callgsubr
          79 72 -19 callsubr
          360 -66 callsubr
          -757 vmoveto
          -104 callgsubr
          endchar
        </CharString>
        <CharString name="Ucircumflex">
          -15 callgsubr
          67 135 -19 callsubr
          44 callgsubr
          47 -880 rmoveto
          -104 callgsubr
          endchar
        </CharString>
        <CharString name="Udieresis">
          -15 callgsubr
          100 102 8 callsubr
          hintmask 00000000
          hintmask 11111110
          215 -46 callsubr
          hintmask 11110010
          -49 -880 rmoveto
          -104 callgsubr
          endchar
        </CharString>
        <CharString name="Ugrave">
          -17 callgsubr
          318 -30 callsubr
          150 -877 rmoveto
          -104 callgsubr
          endchar
        </CharString>
        <CharString name="Uhorn">
          -58 callgsubr
          endchar
        </CharString>
        <CharString name="Uhungarumlaut">
          -17 callgsubr
          243 736 -59 callgsubr
          -100 -880 rmoveto
          -104 callgsubr
          endchar
        </CharString>
        <CharString name="Umacron">
          -15 callgsubr
          101 77 -19 callsubr
          208 767 -47 callgsubr
          152 -856 rmoveto
          -104 callgsubr
          endchar
        </CharString>
        <CharString name="Uogonek">
          98 -182 66 104 94 604 89 callsubr
          143 86 121 111 vstem
          432 -182 rmoveto
          21 21 5 9 22 hvcurveto
          52 -30 vlineto
          -38 -13 27 27 21 11 21 12 15 hvcurveto
          132 22 77 82 155 vvcurveto
          432 -111 -434 vlineto
          -112 -65 -58 -111 -110 -64 58 112 vhcurveto
          434 -111 -432 vlineto
          -183 107 -82 177 -1 vhcurveto
          -17 -20 -13 -25 -36 77 callsubr
          endchar
        </CharString>
        <CharString name="Uring">
          -15 callgsubr
          42 49 97 49 -13 callgsubr
          77 49 98 49 77 111 hintmask 00000000
          hintmask 11111111
          361 708 -71 callgsubr
          -1 -769 rmoveto
          179 108 83 183 hvcurveto
          hintmask 11011111
          432 -111 -434 vlineto
          -112 -65 -58 -111 -110 -64 58 112 vhcurveto
          434 -111 -432 vlineto
          hintmask 11111111
          -183 108 -83 177 vhcurveto
          endchar
        </CharString>
        <CharString name="Utilde">
          -15 callgsubr
          92 47 callgsubr
          10 -14 callsubr
          10 111 -27 callgsubr
          164 -770 rmoveto
          -104 callgsubr
          endchar
        </CharString>
        <CharString name="V">
          43 0 117 569 -20 hstem
          12 642 vstem
          265 hmoveto
          137 hlineto
          252 686 rlineto
          -114 hlineto
          -164 -460 -11 -32 -18 -55 -8 -22 rlinecurve
          -5 hlineto
          -7 22 -19 54 -11 32 -165 461 rcurveline
          -120 hlineto
          endchar
        </CharString>
        <CharString name="W">
          23 callgsubr
          hstem
          8 928 vstem
          201 hmoveto
          -98 callsubr
        </CharString>
        <CharString name="Wacute">
          23 callgsubr
          50 132 hstem
          8 928 vstem
          429 -68 callgsubr
          -312 -868 rmoveto
          -98 callsubr
        </CharString>
        <CharString name="Wcircumflex">
          23 callgsubr
          47 135 hstem
          8 928 vstem
          318 -65 callsubr
          -223 -868 rmoveto
          -98 callsubr
        </CharString>
        <CharString name="Wdieresis">
          23 callgsubr
          80 102 hstem
          326 97 97 97 vstem
          326 -46 callsubr
          -319 -868 rmoveto
          -98 callsubr
        </CharString>
        <CharString name="Wgrave">
          23 callgsubr
          50 132 hstem
          8 928 vstem
          429 -30 callsubr
          -120 -865 rmoveto
          -98 callsubr
        </CharString>
        <CharString name="X">
          53 callgsubr
          hstem
          3 660 vstem
          3 hmoveto
          130 hlineto
          194 274 rlineto
          7 hlineto
          194 -274 rlineto
          135 hlineto
          -261 361 236 325 rlineto
          -130 hlineto
          -169 -238 rlineto
          -8 hlineto
          -168 238 rlineto
          -136 hlineto
          236 -327 rlineto
          endchar
        </CharString>
        <CharString name="Y">
          53 callgsubr
          hstem
          279 111 vstem
          279 hmoveto
          -90 callsubr
          endchar
        </CharString>
        <CharString name="Y.loclGUA">
          -7 callsubr
          hstem
          75 111 295 111 vstem
          325 -12 -100 callgsubr
        </CharString>
        <CharString name="Yacute">
          43 -8 callsubr
          279 111 vstem
          291 -68 callgsubr
          -96 -868 rmoveto
          -90 callsubr
          endchar
        </CharString>
        <CharString name="Yacute.loclGUA">
          -7 callsubr
          70 132 -34 callsubr
          295 111 vstem
          291 -68 callgsubr
          -50 -880 -100 callgsubr
        </CharString>
        <CharString name="Ycircumflex">
          53 callgsubr
          67 135 hstem
          279 31 callsubr
          -7 -868 rmoveto
          -90 callsubr
          endchar
        </CharString>
        <CharString name="Ycircumflex.loclGUA">
          -7 callsubr
          67 79 callgsubr
          295 31 callsubr
          39 -880 -100 callgsubr
        </CharString>
        <CharString name="Ydieresis">
          53 callgsubr
          100 102 hstemhm
          188 97 -6 111 -8 97 hintmask 00000000
          hintmask 11110100
          55 callgsubr
          hintmask 11101000
          -103 -868 rmoveto
          -90 callsubr
          endchar
        </CharString>
        <CharString name="Ydieresis.loclGUA">
          -7 callsubr
          100 102 -13 callgsubr
          2 97 97 97 2 111 hintmask 00000000
          hintmask 11110110
          55 callgsubr
          hintmask 11111001
          -57 -880 -100 callgsubr
        </CharString>
        <CharString name="Ygrave">
          43 -8 callsubr
          279 45 callsubr
          96 -865 rmoveto
          -90 callsubr
          endchar
        </CharString>
        <CharString name="Ygrave.loclGUA">
          -7 callsubr
          70 132 -34 callsubr
          295 45 callsubr
          142 -877 -100 callgsubr
        </CharString>
        <CharString name="Z">
          -13 0 95 496 95 hstem
          21 567 vstem
          21 hmoveto
          -74 callsubr
          endchar
        </CharString>
        <CharString name="Zacute">
          -13 0 95 496 95 50 132 hstem
          21 567 vstem
          263 -68 callgsubr
          -326 -868 rmoveto
          -74 callsubr
          endchar
        </CharString>
        <CharString name="Zacute.loclPLK">
          -13 0 95 496 95 50 132 hstem
          21 567 vstem
          263 736 -33 callsubr
          -269 -868 rmoveto
          -74 callsubr
          endchar
        </CharString>
        <CharString name="Zcaron">
          -13 0 95 496 95 47 135 hstem
          21 567 vstem
          258 733 -99 callgsubr
          -131 -868 rmoveto
          -74 callsubr
          endchar
        </CharString>
        <CharString name="Zdotaccent">
          -13 0 95 496 95 77 105 hstem
          255 102 vstem
          255 763 rmoveto
          102 105 -102 hlineto
          -234 -868 rmoveto
          -74 callsubr
          endchar
        </CharString>
        <CharString name="a">
          -82 callgsubr
          -50 callsubr
          hintmask 10111010
          204 -12 -75 callsubr
          hintmask 01110110
          -107 callsubr
          hintmask 10111010
          -104 callsubr
          endchar
        </CharString>
        <CharString name="aacute">
          -82 callgsubr
          53 132 56 callgsubr
          235 -67 callsubr
          -115 7 callgsubr
          hintmask 01111011
          -107 callsubr
          hintmask 10111101
          -104 callsubr
          endchar
        </CharString>
        <CharString name="abreve">
          -82 callgsubr
          49 callgsubr
          -50 callsubr
          hintmask 1011011010000000
          277 600 -74 callgsubr
          hintmask 1011101010000000
          -49 callsubr
          hintmask 1011011010000000
          -39 callgsubr
          hintmask 0111010110000000
          -107 callsubr
          hintmask 1011011010000000
          -104 callsubr
          endchar
        </CharString>
        <CharString name="acircumflex">
          -82 callgsubr
          50 135 -59 59 -50 callsubr
          hintmask 1011101010000000
          85 callgsubr
          hintmask 1011011010000000
          57 76 rlineto
          hintmask 1011101010000000
          -51 callgsubr
          hintmask 0111100110000000
          -107 callsubr
          hintmask 1011101010000000
          -104 callsubr
          endchar
        </CharString>
        <CharString name="acute">
          64 callsubr
          75 192 vstem
          75 -67 callsubr
          endchar
        </CharString>
        <CharString name="acute.loclPLK">
          64 callsubr
          100 133 vstem
          100 11 callsubr
          endchar
        </CharString>
        <CharString name="adieresis">
          -82 callgsubr
          83 102 -29 callsubr
          -28 97 97 97 -49 103 hintmask 1011100101000000
          132 621 -41 callsubr
          hintmask 1011110010000000
          194 -102 -41 callsubr
          -122 -735 rmoveto
          hintmask 1011100101000000
          79 58 29 47 36 hvcurveto
          7 hlineto
          hintmask 0111101001000000
          -107 callsubr
          hintmask 1011110001000000
          -198 -142 -35 -144 hvcurveto
          hintmask 1011110010000000
          -127 107 -21 63 vhcurveto
          hintmask 1011110001000000
          36 callsubr
        </CharString>
        <CharString name="ae">
          265 -49 callgsubr
          -29 callsubr
          223 105 256 107 hintmask 11110110
          224 -12 -22 callsubr
          hintmask 11101110
          26 callgsubr
          hintmask 11110110
          -21 callsubr
        </CharString>
        <CharString name="aeacute">
          265 -49 callgsubr
          53 132 -29 callsubr
          223 105 256 107 hintmask 11111011
          402 -67 callsubr
          -262 -735 -22 callsubr
          hintmask 11110111
          26 callgsubr
          hintmask 11111011
          -21 callsubr
        </CharString>
        <CharString name="agrave">
          -82 callgsubr
          53 132 56 callgsubr
          235 -31 callsubr
          77 -732 -75 callsubr
          hintmask 01111011
          -107 callsubr
          hintmask 10111101
          -104 callsubr
          endchar
        </CharString>
        <CharString name="amacron">
          -82 callgsubr
          84 77 56 callgsubr
          125 622 -47 callgsubr
          79 -711 -75 callsubr
          hintmask 01111011
          -107 callsubr
          hintmask 10111101
          -104 callsubr
          endchar
        </CharString>
        <CharString name="ampersand">
          60 -12 86 231 86 221 86 hstemhm
          43 106 -90 105 306 103 hintmask 11110100
          307 -12 rmoveto
          175 91 82 127 hvcurveto
          108 88 86 -191 -197 vlineto
          -79 -51 -41 -105 -101 -64 35 83 91 73 23 77 vhcurveto
          61 85 -63 hlineto
          hintmask 11101100
          -71 -62 37 73 77 65 34 88 92 61 -35 -76 hvcurveto
          -12 103 21 vlineto
          114 -105 74 -150 -156 -103 -66 -122 -83 47 -42 65 -29 vhcurveto
          -4 vlineto
          hintmask 11110100
          -74 -22 -54 -53 -93 vvcurveto
          -122 110 -74 154 vhcurveto
          endchar
        </CharString>
        <CharString name="ampersand.alt">
          60 -13 84 -71 130 -109 -21 615 84 hstemhm
          50 104 -10 100 155 99 24 97 hintmask 00000000
          hintmask 00111011
          674 hmoveto
          hintmask 01011011
          -118 130 39 58 23 74 1 85 rlinecurve
          -97 hlineto
          -55 -12 -50 -19 -41 vhcurveto
          -143 156 rlineto
          hintmask 10010110
          81 35 69 65 91 vvcurveto
          96 -77 55 -91 -102 -84 -68 -109 -52 18 -43 31 -39 vhcurveto
          hintmask 10011010
          -78 -38 -65 -68 -98 vvcurveto
          -126 105 -71 128 79 72 25 46 56 vhcurveto
          hintmask 00111011
          53 -58 rlineto
          hintmask 10010110
          -219 615 rmoveto
          39 36 -26 -51 -58 -46 -35 -63 -25 hvcurveto
          -24 24 -22 35 48 vvcurveto
          59 39 29 41 vhcurveto
          -31 -544 rmoveto
          hintmask 10011010
          -77 -62 42 74 63 37 46 60 27 hvcurveto
          181 -200 rlineto
          hintmask 10010110
          -33 -37 -48 -19 -54 hhcurveto
          endchar
        </CharString>
        <CharString name="aogonek">
          -68 -182 66 104 84 -51 -21 237 -40 callgsubr
          -50 callsubr
          -96 86 -10 callgsubr
          hintmask 1101110010000000
          479 -182 rmoveto
          26 27 8 6 16 hvcurveto
          52 -29 vlineto
          -39 -13 24 24 50 52 14 29 8 hvcurveto
          hintmask 1101101100000000
          69 -36 vlineto
          -18 -17 10 25 hvcurveto
          269 vlineto
          101 -67 60 -138 -126 -87 -52 -94 -9 0 -7 1 -6 vhcurveto
          100 13 hlineto
          34 22 38 86 87 19 -37 -51 vhcurveto
          -52 vlineto
          hintmask 1101110010000000
          -198 -142 -35 -144 -127 107 -21 63 79 58 29 47 36 hvcurveto
          7 hlineto
          hintmask 1011110010000000
          7 -30 17 -23 26 -11 rrcurveto
          -29 -23 -24 -29 -44 vvcurveto
          hintmask 1101110010000000
          -66 51 -20 47 vhcurveto
          hintmask 1101110100000000
          -245 254 rmoveto
          -61 -33 21 51 77 99 16 135 hvcurveto
          -32 vlineto
          -85 -64 -48 -76 vhcurveto
          endchar
        </CharString>
        <CharString name="approxequal">
          -75 64 101 -41 101 52 101 -41 101 hstemhm
          35 479 hintmask 00000000
          hintmask 10011000
          35 265 rmoveto
          29 callsubr
          hintmask 01011000
          93 callgsubr
          -314 vmoveto
          29 callsubr
          hintmask 01101000
          93 callgsubr
          endchar
        </CharString>
        <CharString name="aring">
          -82 callgsubr
          25 49 97 49 -29 callsubr
          20 49 98 49 -2 103 -10 callgsubr
          hintmask 1011111011000000
          278 563 -71 callgsubr
          -74 -624 rmoveto
          hintmask 1011011010100000
          79 58 29 47 36 hvcurveto
          7 hlineto
          hintmask 0111010110100000
          -107 callsubr
          hintmask 1011011010100000
          -198 -142 -35 -144 hvcurveto
          hintmask 1011111011000000
          -127 107 -21 63 vhcurveto
          hintmask 1011011010100000
          36 callsubr
        </CharString>
        <CharString name="aringacute">
          -82 callgsubr
          25 49 97 49 22 132 -29 callsubr
          20 49 98 49 -2 103 -10 callgsubr
          hintmask 1011111101100000
          236 780 -96 callgsubr
          -42 -349 rmoveto
          61 37 44 53 hvcurveto
          hintmask 1011010101100000
          54 -37 44 -61 -61 -37 -44 -54 vhcurveto
          hintmask 1011111101100000
          -53 37 -44 61 vhcurveto
          49 vmoveto
          -29 -20 21 27 hvcurveto
          hintmask 1011010101100000
          28 20 21 29 29 20 -21 -28 vhcurveto
          hintmask 1011111101100000
          -27 -20 -21 -29 vhcurveto
          hintmask 1011010101010000
          -74 -624 -75 callsubr
          hintmask 0111010011010000
          -107 callsubr
          hintmask 1011010101010000
          -104 callsubr
          endchar
        </CharString>
        <CharString name="arrowboth">
          376 210 85 hstem
          42 917 vstem
          239 76 rmoveto
          45 hlineto
          -53 134 rlineto
          543 hlineto
          -57 -134 rlineto
          54 callsubr
          -134 rlineto
          -543 hlineto
          53 134 rlineto
          -45 hlineto
          -197 -166 rlineto
          -21 vlineto
          endchar
        </CharString>
        <CharString name="arrowdown">
          83 callsubr
          240 -208 rmoveto
          21 hlineto
          167 86 callsubr
          -56 rlineto
          732 -84 -732 vlineto
          -135 56 rlineto
          -45 vlineto
          endchar
        </CharString>
        <CharString name="arrowleft">
          376 210 84 hstem
          42 918 vstem
          239 76 rmoveto
          45 hlineto
          -56 134 rlineto
          732 84 -732 hlineto
          56 135 rlineto
          -45 hlineto
          -197 -166 rlineto
          -21 vlineto
          endchar
        </CharString>
        <CharString name="arrowright">
          376 210 84 hstem
          41 918 vstem
          717 76 rmoveto
          54 callsubr
          -135 rlineto
          -733 -84 733 hlineto
          endchar
        </CharString>
        <CharString name="arrowup">
          83 callsubr
          209 -208 rmoveto
          84 733 hlineto
          134 -57 12 callgsubr
          135 57 rlineto
          endchar
        </CharString>
        <CharString name="arrowupdn">
          -124 -206 917 hstem
          207 84 vstem
          239 -206 rmoveto
          21 hlineto
          166 86 callsubr
          -57 rlineto
          543 vlineto
          135 -53 12 callgsubr
          134 53 rlineto
          -543 vlineto
          -134 57 rlineto
          -45 vlineto
          endchar
        </CharString>
        <CharString name="arrowupdnbse">
          -124 -233 60 hstem
          207 84 vstem
          239 -125 rmoveto
          21 hlineto
          166 86 callsubr
          -56 rlineto
          461 vlineto
          135 -53 12 callgsubr
          134 53 rlineto
          -461 vlineto
          -134 56 rlineto
          -45 vlineto
          -1 -305 rmoveto
          355 60 -355 hlineto
          endchar
        </CharString>
        <CharString name="asciicircum">
          -155 595 91 0 -20 hstemhm
          25 420 hintmask 01100000
          25 294 rmoveto
          96 hlineto
          hintmask 10100000
          113 301 115 -301 rlineto
          96 hlineto
          -157 392 -5 callsubr
          endchar
        </CharString>
        <CharString name="asciitilde">
          -40 219 101 -40 101 hstemhm
          41 502 hintmask 01100000
          41 207 rmoveto
          0 60 73 85 vhcurveto
          hintmask 10100000
          78 58 -61 76 hhcurveto
          97 48 73 0 hvcurveto
          101 vlineto
          0 -60 -73 -85 vhcurveto
          hintmask 01100000
          -78 -58 61 -76 hhcurveto
          -97 -48 -73 0 hvcurveto
          endchar
        </CharString>
        <CharString name="asterisk">
          -235 686 -20 hstem
          31 323 vstem
          151 362 rmoveto
          83 hlineto
          -17 119 96 -74 41 71 -112 46 112 47 -41 70 -96 -73 17 118 rlineto
          -83 hlineto
          17 -119 -96 74 -41 -70 112 -47 -112 -46 41 -71 96 74 rlineto
          endchar
        </CharString>
        <CharString name="at">
          379 -153 65 110 73 152 71 128 75 112 65 hstemhm
          51 73 180 96 -73 93 184 94 186 72 hintmask 1111111011000000
          479 -153 rmoveto
          49 90 11 16 47 hvcurveto
          70 vlineto
          -18 -41 -93 -14 -52 hhcurveto
          -243 -112 117 232 251 151 121 242 216 151 -91 -220 -176 -75 -51 -64 -29 -18 11 28 hvcurveto
          244 vlineto
          91 -59 52 -122 vhcurveto
          hintmask 1111110111000000
          -112 -78 -47 -86 -8 0 -6 1 -6 hvcurveto
          92 12 hlineto
          31 21 35 71 75 17 -33 -45 vhcurveto
          -50 vlineto
          hintmask 1111111011000000
          -173 -127 -32 -131 -115 96 -19 55 69 50 24 39 33 hvcurveto
          5 hlineto
          -26 8 27 -36 77 hhcurveto
          97 135 72 227 268 -187 109 -251 -252 -215 -117 -319 -289 164 -126 264 hvcurveto
          3 250 rmoveto
          -56 -26 19 47 70 87 14 117 hvcurveto
          -35 vlineto
          -73 -55 -42 -67 vhcurveto
          endchar
        </CharString>
        <CharString name="atilde">
          -82 callgsubr
          75 77 -44 77 -29 callsubr
          -47 66 195 103 -101 67 -10 callgsubr
          hintmask 1011100011000000
          113 613 rmoveto
          66 hlineto
          hintmask 1011010011000000
          -66 callgsubr
          hintmask 1011101000100000
          -53 callsubr
          hintmask 1011011000100000
          -73 callsubr
          hintmask 1011100010100000
          -48 callsubr
          hintmask 1011100011000000
          -55 callsubr
          hintmask 1011011001000000
          91 -625 -75 callsubr
          hintmask 0111010101000000
          -107 callsubr
          hintmask 1011011001000000
          -104 callsubr
          endchar
        </CharString>
        <CharString name="b">
          -12 58 callsubr
          68 103 260 106 hintmask 10111100
          329 -12 rmoveto
          129 79 83 192 191 -83 84 -118 -73 -52 -23 -49 -34 hvcurveto
          -6 257 -103 hlineto
          hintmask 01111100
          -723 82 vlineto
          hintmask 10111100
          10 70 rlineto
          7 hlineto
          -54 34 60 -28 68 hhcurveto
          -29 87 rmoveto
          -91 -38 65 117 hvcurveto
          8 vlineto
          119 38 67 55 callsubr
        </CharString>
        <CharString name="backslash">
          93 callsubr
          198 -49 rmoveto
          79 hlineto
          -198 784 rlineto
          -78 hlineto
          endchar
        </CharString>
        <CharString name="bar">
          69 callgsubr
          -173 rmoveto
          84 896 -84 hlineto
          endchar
        </CharString>
        <CharString name="braceleft">
          68 callsubr
          37 70 17 91 hintmask 10110100
          308 -159 rmoveto
          63 vlineto
          -42 -50 12 56 -1 hvcurveto
          -1 45 -5 119 -1 39 rrcurveto
          hintmask 11111100
          68 -3 -26 40 -72 hhcurveto
          10 vlineto
          hintmask 10110100
          72 26 40 68 3 hvcurveto
          1 39 5 119 1 45 rrcurveto
          56 1 51 12 41 hhcurveto
          63 vlineto
          -103 -81 -22 -126 hvcurveto
          -196 vlineto
          -45 -46 -15 -41 vhcurveto
          hintmask 11111100
          -86 vlineto
          hintmask 11110100
          41 46 -15 -45 hvcurveto
          -196 vlineto
          hintmask 10110100
          -126 81 -22 103 vhcurveto
          endchar
        </CharString>
        <CharString name="braceright">
          68 callsubr
          136 91 17 70 hintmask 10111000
          43 -159 rmoveto
          103 81 22 126 hvcurveto
          hintmask 11111000
          196 vlineto
          45 46 15 41 vhcurveto
          hintmask 10111100
          86 vlineto
          hintmask 10111000
          -41 -46 15 45 hvcurveto
          196 vlineto
          126 -81 22 -103 vhcurveto
          -63 vlineto
          41 51 -12 -56 1 hvcurveto
          1 -45 5 -119 1 -39 rrcurveto
          hintmask 10111100
          -68 3 25 -40 73 hhcurveto
          -10 vlineto
          hintmask 11111000
          -73 -25 -40 -68 -3 hvcurveto
          -1 -39 -5 -119 -1 -45 rrcurveto
          -56 -1 -50 -12 -42 hhcurveto
          endchar
        </CharString>
        <CharString name="bracketleft">
          -329 -161 74 748 74 hstem
          65 91 vstem
          65 -161 rmoveto
          197 74 -106 748 106 74 -197 hlineto
          endchar
        </CharString>
        <CharString name="bracketright">
          -329 -161 74 748 74 hstem
          139 90 vstem
          33 -161 rmoveto
          196 896 -196 -74 106 -748 -106 hlineto
          endchar
        </CharString>
        <CharString name="breve">
          -291 600 72 -72 123 hstemhm
          16 301 hintmask 01100000
          166 600 -74 callgsubr
          hintmask 10100000
          -49 callsubr
          hintmask 01100000
          -90 callgsubr
          endchar
        </CharString>
        <CharString name="brokenbar">
          69 callgsubr
          357 rmoveto
          84 366 -84 hlineto
          -896 vmoveto
          84 366 -84 hlineto
          endchar
        </CharString>
        <CharString name="bullet">
          -274 216 255 hstem
          48 255 vstem
          175 216 rmoveto
          70 58 57 70 70 -58 58 -70 -70 -57 -58 -70 -70 57 -57 70 hvcurveto
          endchar
        </CharString>
        <CharString name="c">
          52 callgsubr
          hstem
          36 106 242 104 vstem
          274 -12 -91 callgsubr
        </CharString>
        <CharString name="cacute">
          39 callgsubr
          84 hlineto
          108 129 -1 3 rlineto
          -107 hlineto
          -26 -735 -91 callgsubr
        </CharString>
        <CharString name="cacute.loclPLK">
          39 callgsubr
          85 hlineto
          48 130 -1 2 rlineto
          -105 hlineto
          31 -735 -91 callgsubr
        </CharString>
        <CharString name="caron">
          -291 588 135 hstem
          13 307 vstem
          119 588 -99 callgsubr
          endchar
        </CharString>
        <CharString name="ccaron">
          52 callgsubr
          50 135 hstem
          36 106 242 104 vstem
          211 588 -99 callgsubr
          169 -735 -91 callgsubr
        </CharString>
        <CharString name="ccedilla">
          -107 33 callsubr
          23 84 -63 -21 24 -21 463 84 hstemhm
          36 106 155 83 4 104 -10 callgsubr
          hintmask 1001001101000000
          275 72 rmoveto
          -94 -39 56 130 hvcurveto
          7 vlineto
          132 41 57 90 82 29 -41 -83 vhcurveto
          104 hlineto
          136 -71 72 -143 -161 -77 -86 -189 vhcurveto
          hintmask 1000011101000000
          -167 60 -87 126 -18 vhcurveto
          hintmask 1010011110000000
          -12 -68 -16 callsubr
          hintmask 0100011101000000
          -49 vlineto
          hintmask 1010011110000000
          11 callgsubr
          -51 3 hvcurveto
          hintmask 1000101110000000
          4 23 rlineto
          hintmask 1000101101000000
          135 7 63 85 116 vvcurveto
          -99 hlineto
          hintmask 1001001101000000
          -80 -34 -44 -80 vhcurveto
          endchar
        </CharString>
        <CharString name="ccircumflex">
          52 callgsubr
          50 135 -59 59 hstemhm
          36 106 242 104 hintmask 11101100
          105 2 callsubr
          hintmask 11011100
          57 76 rlineto
          hintmask 11101100
          -101 callgsubr
          63 -735 -91 callgsubr
        </CharString>
        <CharString name="cdotaccent">
          52 callgsubr
          80 105 hstem
          36 106 66 102 74 104 vstem
          208 35 callsubr
          66 -735 -91 callgsubr
        </CharString>
        <CharString name="cedilla">
          -291 -182 57 -28 -21 97 88 hstemhm
          188 83 hintmask 10110000
          148 -182 rmoveto
          49 74 14 67 46 -43 17 -51 3 hvcurveto
          8 46 rlineto
          -69 hlineto
          -15 -88 -16 callsubr
          hintmask 01110000
          -49 vlineto
          hintmask 10110000
          -5 28 37 -3 33 hhcurveto
          endchar
        </CharString>
        <CharString name="cent">
          -68 723 -20 hstem
          46 106 106 51 85 105 vstem
          258 -49 rmoveto
          51 117 hlineto
          129 10 61 84 113 vvcurveto
          -100 hlineto
          -72 -27 -42 -63 -8 vhcurveto
          378 vlineto
          63 -8 22 -40 -74 vvcurveto
          105 hlineto
          128 -64 71 -126 8 vhcurveto
          107 -51 -107 vlineto
          -143 -8 -69 -87 -179 vvcurveto
          -179 67 -86 145 -9 vhcurveto
          85 vmoveto
          -74 11 -32 57 116 vvcurveto
          11 vlineto
          116 32 57 74 10 vhcurveto
          endchar
        </CharString>
        <CharString name="circumflex">
          -291 588 135 -59 59 hstemhm
          13 307 hintmask 10100000
          13 2 callsubr
          hintmask 01100000
          57 76 rlineto
          hintmask 10100000
          -101 callgsubr
          endchar
        </CharString>
        <CharString name="colon">
          -329 0 117 292 117 hstem
          92 112 vstem
          92 409 -34 callgsubr
          -526 vmoveto
          112 117 -112 hlineto
          endchar
        </CharString>
        <CharString name="comma">
          -346 0 117 hstem
          83 112 vstem
          83 -141 -4 callsubr
        </CharString>
        <CharString name="copyright">
          113 -12 52 93 58 303 59 93 52 hstem
          13 54 123 72 194 71 142 -40 callsubr
          93 vmoveto
          114 45 75 86 hvcurveto
          -67 hlineto
          -67 -26 -36 -66 -74 -32 44 107 110 34 42 72 68 20 -32 -70 vhcurveto
          71 hlineto
          104 -47 57 -112 -121 -57 -66 -145 -144 56 -65 122 vhcurveto
          endchar
        </CharString>
        <CharString name="currency">
          -68 102 79 338 79 hstem
          33 82 326 82 vstem
          74 99 rmoveto
          55 58 rlineto
          -37 40 55 -18 54 hhcurveto
          54 55 18 37 40 hvcurveto
          55 -58 45 45 -54 56 rlineto
          34 42 16 54 55 vvcurveto
          55 -16 56 -34 39 vhcurveto
          55 54 -48 48 -57 -56 rlineto
          33 -38 -54 18 -53 hhcurveto
          -53 -54 -18 -33 -38 hvcurveto
          -57 56 -48 -48 55 -54 rlineto
          -34 -39 -16 -56 -55 vvcurveto
          -55 16 -54 34 -42 vhcurveto
          -54 -56 rlineto
          249 37 rmoveto
          -91 -72 79 91 89 73 79 90 90 73 -79 -89 -91 -72 -79 -91 hvcurveto
          endchar
        </CharString>
        <CharString name="d">
          -12 58 callsubr
          36 106 260 103 hintmask 10111100
          -2 callsubr
          hintmask 01111100
          -54 callsubr
          hintmask 10111100
          46 callsubr
          29 87 -61 callsubr
          endchar
        </CharString>
        <CharString name="dagger">
          -68 686 -20 hstem
          237 80 vstem
          227 -171 rmoveto
          100 hlineto
          -20 600 21 callsubr
          rlineto
          endchar
        </CharString>
        <CharString name="daggerdbl">
          -68 686 -20 hstem
          238.5 77 vstem
          230 -171 rmoveto
          94 hlineto
          -17 194 206 -17 rlineto
          99 vlineto
          -206 -18 20 173 -20 169 21 callsubr
          -20 -169 20 -173 -205 18 rlineto
          -99 vlineto
          205 17 rlineto
          endchar
        </CharString>
        <CharString name="dcaron">
          30 -12 87 -54 -21 451 87 46 102 -102 139 77 callgsubr
          55 101 hintmask 10110111
          -2 callsubr
          hintmask 01101111
          -54 callsubr
          hintmask 10110111
          46 callsubr
          316 487 rmoveto
          52 hlineto
          49 79 callsubr
          40 vlineto
          -327 -509 -61 callsubr
          endchar
        </CharString>
        <CharString name="dcroat">
          -12 87 -54 -21 451 87 55 65 -65 130 77 callgsubr
          hintmask 00000000
          hintmask 10110110
          568 658 rmoveto
          -63 hlineto
          hintmask 10101110
          65 -103 vlineto
          hintmask 10110110
          -65 -145 vlineto
          hintmask 10101110
          -65 145 -127 -6 vlineto
          49 -34 -52 23 -73 hhcurveto
          -119 -82 -84 -191 -192 79 -83 129 68 60 28 54 34 hvcurveto
          7 hlineto
          hintmask 01101110
          10 -70 rlineto
          82 593 63 hlineto
          -166 -336 rmoveto
          hintmask 10101110
          -117 -38 -65 -91 -95 -36 51 131 vhcurveto
          9 vlineto
          133 37 52 94 90 39 -67 -119 vhcurveto
          endchar
        </CharString>
        <CharString name="degree">
          -224 415 62 158 63 hstem
          57 62 158 63 vstem
          199 415 rmoveto
          78 63 63 79 78 -63 63 -78 -79 -63 -63 -78 -79 63 -63 79 hvcurveto
          62 vmoveto
          -44 -36 36 44 43 36 35 44 43 35 -35 -43 -44 -35 -36 -43 hvcurveto
          endchar
        </CharString>
        <CharString name="dieresis">
          -291 621 102 hstem
          21 97 97 97 vstem
          21 621 -88 callgsubr
          endchar
        </CharString>
        <CharString name="divide">
          -75 0 103 108 89 108 103 hstem
          221 106 vstem
          221 408 rmoveto
          106 103 -106 hlineto
          -183 -300 rmoveto
          473 89 -473 hlineto
          183 -300 rmoveto
          106 103 -106 hlineto
          endchar
        </CharString>
        <CharString name="dollar">
          -68 67 82 385 82 107 -20 hstemhm
          50 101 -87 103 83 51 80 100 -90 103 hintmask 11101101
          250 -49 rmoveto
          51 117 hlineto
          113 7 80 48 109 vvcurveto
          111 -103 28 -90 22 vhcurveto
          140 vlineto
          hintmask 11101110
          56 -8 24 -30 -35 vvcurveto
          -7 99 vlineto
          2 1 10 9 vvcurveto
          76 -69 59 -111 7 vhcurveto
          107 -51 -107 vlineto
          -112 -8 -74 -54 -90 vvcurveto
          -104 97 -26 89 -23 vhcurveto
          -162 vlineto
          hintmask 11110101
          -56 7 -43 25 54 vvcurveto
          9 -100 vlineto
          -1 -6 0 -7 -6 vvcurveto
          -80 63 -71 137 -7 vhcurveto
          339 vmoveto
          hintmask 11101101
          -47 14 -36 16 36 vvcurveto
          26 19 31 64 5 vhcurveto
          51 -385 rmoveto
          148 vlineto
          51 -16 39 -20 -43 vvcurveto
          -41 -40 -22 -50 -6 vhcurveto
          endchar
        </CharString>
        <CharString name="dotaccent">
          -291 618 105 hstem
          116 102 vstem
          116 35 callsubr
          endchar
        </CharString>
        <CharString name="dotbelowcomb">
          -624 10 callgsubr
          hstem
          -217 102 vstem
          -217 -173 -72 callgsubr
        </CharString>
        <CharString name="dotlessi">
          0 callsubr
          hstem
          88 103 vstem
          88 hmoveto
          -11 callgsubr
        </CharString>
        <CharString name="e">
          -56 callgsubr
          34 callgsubr
          289 -12 -105 callsubr
        </CharString>
        <CharString name="eacute">
          10 callsubr
          235 -67 callsubr
          -30 -89 callgsubr
        </CharString>
        <CharString name="ebreve">
          -56 callgsubr
          49 callgsubr
          hstemhm
          43 callsubr
          hintmask 11101110
          277 600 -74 callgsubr
          hintmask 11110110
          -49 callsubr
          hintmask 11101110
          -90 callgsubr
          12 -612 -105 callsubr
        </CharString>
        <CharString name="ecaron">
          -56 callgsubr
          50 135 34 callgsubr
          230 588 -99 callgsubr
          165 -89 callgsubr
        </CharString>
        <CharString name="ecircumflex">
          -56 callgsubr
          50 135 -59 59 hstemhm
          43 callsubr
          hintmask 11110110
          85 callgsubr
          hintmask 11101110
          57 76 rlineto
          hintmask 11110110
          -93 callsubr
          endchar
        </CharString>
        <CharString name="edieresis">
          -56 callgsubr
          83 102 hstemhm
          38 106 -12 97 97 97 -12 107 hintmask 11110110
          132 621 1 callsubr
          -37 -89 callgsubr
        </CharString>
        <CharString name="edotaccent">
          -56 callgsubr
          80 105 hstem
          38 106 83 102 82 107 vstem
          227 35 callsubr
          62 -89 callgsubr
        </CharString>
        <CharString name="egrave">
          10 callsubr
          235 -31 callsubr
          162 -732 -105 callsubr
        </CharString>
        <CharString name="eight">
          -68 -12 84 236 85 221 84 hstemhm
          36 107 -89 104 239 103 -87 106 hintmask 11110010
          277 -12 rmoveto
          172 70 90 110 74 -33 59 -80 31 hvcurveto
          hintmask 11101100
          63 33 31 57 65 vvcurveto
          105 -75 86 -148 -147 -76 -86 -105 -65 32 -57 62 -33 vhcurveto
          hintmask 11110010
          -79 -31 -33 -59 -74 vvcurveto
          -110 71 -90 170 vhcurveto
          hintmask 11101100
          405 vmoveto
          -74 -45 41 69 69 45 42 74 75 45 -42 -69 -69 -46 -41 -74 hvcurveto
          hintmask 11110010
          -321 vmoveto
          -88 -46 45 74 73 46 44 88 89 47 -44 -73 -74 -47 -45 -89 hvcurveto
          endchar
        </CharString>
        <CharString name="ellipsis">
          376 0 117 hstem
          111 112 221 112 220 112 vstem
          111 hmoveto
          112 117 -112 hlineto
          333 -117 -34 callgsubr
          332 -117 -34 callgsubr
          endchar
        </CharString>
        <CharString name="emacron">
          -56 callgsubr
          84 77 34 callgsubr
          125 622 -47 callgsubr
          164 -711 -105 callsubr
        </CharString>
        <CharString name="emdash">
          376 229 82 hstem
          0 1000 vstem
          229 vmoveto
          1000 82 -1000 hlineto
          endchar
        </CharString>
        <CharString name="endash">
          -68 229 82 hstem
          0 556 vstem
          229 vmoveto
          556 82 -556 hlineto
          endchar
        </CharString>
        <CharString name="eng">
          -182 82 121 9 callsubr
          24 callsubr
          hintmask 11101100
          389 -182 rmoveto
          92 27 64 63 hvcurveto
          412 vlineto
          133 -67 48 -100 -74 -61 -28 -54 -38 vhcurveto
          -7 hlineto
          hintmask 11011100
          -10 70 rlineto
          -83 -526 59 callgsubr
          hintmask 11101100
          86 60 55 70 63 41 -23 -83 vhcurveto
          -397 vlineto
          -30 -16 -17 -30 vhcurveto
          -47 -69 hlineto
          -6 19 32 -7 26 hhcurveto
          endchar
        </CharString>
        <CharString name="eogonek">
          -68 -182 66 104 -41 callgsubr
          hstemhm
          38 106 204 87 -24 107 hintmask 00000000
          hintmask 11111100
          450 -182 rmoveto
          23 21 5 9 24 hvcurveto
          52 -27 vlineto
          -40 -16 31 38 43 22 40 18 21 hvcurveto
          hintmask 11111010
          27 30 16 41 53 vvcurveto
          -101 hlineto
          -78 -56 -32 -71 -99 -42 54 112 -5 vhcurveto
          374 40 hlineto
          185 -79 76 -150 -168 -83 -86 -189 -189 82 -86 168 vhcurveto
          hintmask 11111100
          29 28 4 9 26 hvcurveto
          -11 -19 -12 -30 -36 vvcurveto
          -75 52 -23 50 vhcurveto
          hintmask 11111010
          -304 497 rmoveto
          98 10 43 42 90 hhcurveto
          73 49 -39 -101 hvcurveto
          endchar
        </CharString>
        <CharString name="equal">
          -40 103 89 123 90 hstem
          56 473 vstem
          56 315 rmoveto
          473 90 -473 hlineto
          -302 vmoveto
          61 callgsubr
        </CharString>
        <CharString name="equivalence">
          -41 10 89 123 90 123 90 hstem
          57 472 vstem
          57 435 rmoveto
          472 90 -472 hlineto
          -303 vmoveto
          472 90 -472 hlineto
          -302 vmoveto
          472 89 -472 hlineto
          endchar
        </CharString>
        <CharString name="estimated">
          -24 -12 42 218 42 206 42 hstem
          45 108 298 108 vstem
          302 -12 rmoveto
          104 78 50 80 42 hvcurveto
          -34 21 rlineto
          -67 -34 -68 -42 -88 hhcurveto
          -62 -50 19 34 -37 hvcurveto
          165 406 5 vlineto
          165 -98 120 -159 -160 -97 -116 -159 -159 97 -116 160 vhcurveto
          -149 302 rmoveto
          152 vlineto
          34 37 50 20 62 hhcurveto
          61 50 -20 -35 38 hvcurveto
          -151 vlineto
          endchar
        </CharString>
        <CharString name="eth">
          -12 85 377 85 66 61.5 -61.5 122 -105 62 -14 57 42 callgsubr
          hintmask 11010011
          286 -12 rmoveto
          -22 callgsubr
          188 hvcurveto
          hintmask 11001011
          142 -55 113 -89 98 vhcurveto
          93 6 rlineto
          64 vlineto
          -154 -10 rlineto
          hintmask 11010011
          -18 17 -19 15 -21 16 rrcurveto
          -118 hlineto
          -2 -4 rlineto
          hintmask 11000111
          23 -18 23 -17 21 -18 rrcurveto
          hintmask 11100011
          -100 -7 rlineto
          hintmask 11010011
          -64 vlineto
          156 12 27 -28 22 -27 18 -29 rlinecurve
          -2 -2 rlineto
          8 -24 -27 6 -30 hhcurveto
          -136 -89 -88 -185 -188 85 -86 165 hvcurveto
          85 vmoveto
          -101 -43 57 129 hvcurveto
          9 vlineto
          126 43 56 101 102 43 -58 -131 vhcurveto
          -2 vlineto
          -129 -43 -57 -102 vhcurveto
          endchar
        </CharString>
        <CharString name="exclam">
          -329 75 callgsubr
          hintmask 00000000
          hintmask 11010000
          114 179 rmoveto
          -8 callgsubr
          hintmask 11100000
          -22 -179 -34 callgsubr
          endchar
        </CharString>
        <CharString name="exclamdbl">
          -92 75 callgsubr
          146 112 -90 68 hintmask 00000000
          hintmask 11010100
          114 179 rmoveto
          -8 callgsubr
          236 hmoveto
          -8 callgsubr
          hintmask 11101000
          -258 -179 -34 callgsubr
          236 -117 -34 callgsubr
          endchar
        </CharString>
        <CharString name="exclamdown">
          -291 409 117 hstemhm
          111 112 -90 68 hintmask 11000000
          111 409 -34 callgsubr
          hintmask 10100000
          -7 -686 rmoveto
          126 hlineto
          -6 89 -13 242 -10 176 rrcurveto
          -68 hlineto
          -10 -176 -13 -242 -6 -89 rrcurveto
          endchar
        </CharString>
        <CharString name="f">
          -329 83 callgsubr
          vstem
          85 hmoveto
          103 441 99 85 -99 74 hlineto
          -51 callsubr
          vlineto
          endchar
        </CharString>
        <CharString name="f_f">
          -34 83 callgsubr
          192 103 vstem
          530 646 rmoveto
          52 72 hlineto
          7 -19 -33 6 -27 hhcurveto
          -96 -27 -65 -63 hvcurveto
          -77 -192 74 vlineto
          -51 callsubr
          -441 103 441 192 -441 103 441 99 85 -99 74 vlineto
          30 16 16 31 vhcurveto
          endchar
        </CharString>
        <CharString name="fi">
          -90 90 callgsubr
          91 106 -77 85 hstemhm
          85 103 175 103 hintmask 11101100
          85 hmoveto
          103 441 99 85 -99 hlineto
          hintmask 11011100
          74 vlineto
          -51 callsubr
          vlineto
          hintmask 11101100
          278 176 42 callsubr
          -723 vmoveto
          -11 callgsubr
        </CharString>
        <CharString name="five">
          -68 -12 84 290 84 144 96 hstem
          36 106 267 106 vstem
          276 -12 rmoveto
          148 91 85 151 151 -92 71 -116 -72 -45 -25 -22 -29 hvcurveto
          14 191 rlineto
          305 96 -393 hlineto
          -27 -380 96 -14 rlineto
          40 25 45 30 56 hhcurveto
          75 52 -48 -90 -102 -55 -50 -78 -78 -56 54 87 hvcurveto
          -106 hlineto
          -140 95 -85 145 vhcurveto
          endchar
        </CharString>
        <CharString name="fiveeighths">
          50 callgsubr
          -38 59 127 59 58 62 12 -20 hstemhm
          40 70 -50.5 63 103.5 71 237 65 callgsubr
          hintmask 1101110011100100
          106 -12 rmoveto
          76 hlineto
          hintmask 1101101101100100
          546 710 rlineto
          -76 hlineto
          -483 -377 rmoveto
          79 49 46 80 81 -50 38 -63 hvcurveto
          hintmask 1101110011100100
          -28 -21 -7 -8 -15 hvcurveto
          5 73 rlineto
          154 62 -212 hlineto
          -15 -192 61 -9 rlineto
          14 15 15 8 22 hhcurveto
          36 25 -18 -42 -45 -23 -22 -34 hvcurveto
          hintmask 1101110101100100
          -34 -25 22 38 hvcurveto
          -70 hlineto
          hintmask 1101101101100100
          -74 51 -45 78 vhcurveto
          hintmask 1101110011100100
          493 -333 22 callgsubr
          hintmask 1110110011011000
          -24 callsubr
          hintmask 1101110011100100
          78 callgsubr
          -61 37 -48 91 vhcurveto
          hintmask 1110110011011000
          -23 callgsubr
          hintmask 1101110011100100
          -28 callsubr
        </CharString>
        <CharString name="fl">
          -90 87 callsubr
          77 -77 85 hstemhm
          85 103 175 103 hintmask 11011100
          85 hmoveto
          103 441 99 85 -99 74 hlineto
          -51 callsubr
          vlineto
          278 -441 rmoveto
          103 hlineto
          hintmask 11101100
          723 -103 vlineto
          endchar
        </CharString>
        <CharString name="florin">
          -68 -183 85 493 85 166 85 hstem
          34 488 vstem
          110 -183 rmoveto
          96 40 65 63 14 hvcurveto
          96 450 rlineto
          98 hlineto
          18 85 rlineto
          -99 hlineto
          26 120 rlineto
          30 7 18 16 32 hhcurveto
          51 hlineto
          15 72 rlineto
          7 -17 -31 6 -27 hhcurveto
          -97 -40 -65 -63 -13 hvcurveto
          -27 -123 rlineto
          -76 hlineto
          -18 -85 rlineto
          77 hlineto
          -96 -447 rlineto
          -30 -7 -18 -16 -31 hhcurveto
          -52 hlineto
          -15 -72 rlineto
          -7 17 31 -6 28 hhcurveto
          endchar
        </CharString>
        <CharString name="four">
          -68 21 -21 162 85 451 -20 hstem
          335 103 vstem
          335 hmoveto
          103 162 88 85 -88 349 -52 hlineto
          -14 -53 -17 -47 -20 -47 rrcurveto
          -202 -215 vlineto
          41 55 114 214 42 182 rrcurveto
          -110 hlineto
          -39 -169 -63 -145 -82 -136 rrcurveto
          -86 312 vlineto
          endchar
        </CharString>
        <CharString name="fraction">
          17 callsubr
        </CharString>
        <CharString name="franc">
          -68 21 -21 295 88 -13 106 120 90 hstemhm
          73 107 118 103 hintmask 11011100
          73 hmoveto
          107 295 118 -295 103 232 hlineto
          hintmask 10111100
          98 46 40 63 vhcurveto
          37 98 hlineto
          0 -18 8 -27 vhcurveto
          hintmask 11011100
          -60 -30 -46 -47 -16 hvcurveto
          -6 hlineto
          hintmask 10111100
          -10 81 rlineto
          -82 hlineto
          hintmask 11011100
          -81 -118 213 244 90 -351 vlineto
          endchar
        </CharString>
        <CharString name="g">
          -33 callgsubr
          -3 callsubr
          -100 99 -10 callgsubr
          hintmask 1111100010000000
          159 -182 -50 callgsubr
          hintmask 1111010100000000
          -78 callgsubr
          hintmask 1111001001000000
          -82 callsubr
          hintmask 1111010100000000
          -38 callsubr
          hintmask 1111100100000000
          31 callgsubr
          hintmask 1111100010000000
          -91 73 -34 66 vhcurveto
          hintmask 1111001100000000
          -70 callgsubr
          hintmask 1111100010000000
          -79 callsubr
        </CharString>
        <CharString name="g_tilde.loclGUA">
          -33 callgsubr
          75 4 callsubr
          20 103 -73 105 -88 102 -47 -14 callsubr
          -48 102 -51 103 -100 99 -10 callgsubr
          hintmask 1111100001010000
          122 613 rmoveto
          66 hlineto
          hintmask 1111010001010000
          -66 callgsubr
          hintmask 1111100010100000
          -53 callsubr
          hintmask 1111010010100000
          -73 callsubr
          hintmask 1111100001100000
          -48 callsubr
          hintmask 1111100001010000
          -55 callsubr
          hintmask 1111011000001000
          37 -795 -50 callgsubr
          hintmask 1111010100010000
          -78 callgsubr
          hintmask 1111010010000100
          -82 callsubr
          hintmask 1111010100010000
          -38 callsubr
          hintmask 1111011000010000
          31 callgsubr
          hintmask 1111011000001000
          -91 73 -34 66 vhcurveto
          hintmask 1111010010010000
          -70 callgsubr
          hintmask 1111011000001000
          -79 callsubr
        </CharString>
        <CharString name="gbreve">
          -33 callgsubr
          49 callgsubr
          -3 callsubr
          -100 99 hintmask 1111010011000000
          286 600 -74 callgsubr
          hintmask 1111100011000000
          -49 callsubr
          hintmask 1111010011000000
          -90 callgsubr
          hintmask 1111011000100000
          -127 -782 -50 callgsubr
          hintmask 1111010101000000
          -78 callgsubr
          hintmask 1111010010010000
          -82 callsubr
          hintmask 1111010101000000
          -38 callsubr
          hintmask 1111011001000000
          31 callgsubr
          hintmask 1111011000100000
          -91 73 -34 66 vhcurveto
          hintmask 1111010011000000
          -70 callgsubr
          hintmask 1111011000100000
          -79 callsubr
        </CharString>
        <CharString name="gcaron">
          -33 callgsubr
          50 135 -3 callsubr
          -100 99 hintmask 1111100110000000
          239 588 -99 callgsubr
          hintmask 1111110001000000
          26 -78 callsubr
        </CharString>
        <CharString name="gcircumflex">
          -33 callgsubr
          50 24 -24 135 -59 59 -3 callsubr
          -91 90 hintmask 1111010001100000
          135 588 rmoveto
          96 hlineto
          hintmask 1111001001100000
          56 76 rlineto
          hintmask 1111010100010000
          55 -76 rlineto
          97 hlineto
          -104 135 rlineto
          -96 hlineto
          -80 15 callsubr
          hintmask 1111010010100000
          -78 callgsubr
          hintmask 1111100001001000
          64 15 41 47 67 vvcurveto
          -90 hlineto
          -4 -29 -19 -40 -57 -22 rrcurveto
          11 -30 -34 6 -37 hhcurveto
          -138 -81 -66 -112 -59 28 -47 44 -31 hvcurveto
          hintmask 1111010010100000
          -38 callsubr
          hintmask 1111010100100000
          31 callgsubr
          hintmask 1111010100010000
          -91 73 -34 66 vhcurveto
          hintmask 1111010001100000
          -70 callgsubr
          hintmask 1111010100010000
          -79 callsubr
        </CharString>
        <CharString name="gcommaaccent">
          -33 callgsubr
          63 93 hstemhm
          20 103 -73 105 -88 102 68 103 64 102 -51 103 -100 99 hintmask 1111100111000000
          237 601 rmoveto
          103 93 -42 hlineto
          42 86 rlineto
          -53 hlineto
          -50 -94 rlineto
          hintmask 1111110010100000
          -78 -868 -77 callgsubr
        </CharString>
        <CharString name="gdotaccent">
          -33 callgsubr
          80 105 hstemhm
          20 103 -73 105 -88 102 67 102 66 102 -51 103 -100 99 hintmask 1111100111000000
          236 35 callsubr
          hintmask 1111110010100000
          -77 -905 -77 callgsubr
        </CharString>
        <CharString name="germandbls">
          -13 0 85 256 88 222 84 hstemhm
          64 104 280 105 -80 105 hintmask 11110100
          64 hmoveto
          104 518 hlineto
          87 55 46 89 vhcurveto
          hintmask 11111000
          89 47 -46 -62 -64 -51 -50 -66 hvcurveto
          -87 -88 95 hlineto
          hintmask 11110100
          78 56 -56 -71 -70 -53 -59 -74 hvcurveto
          -102 -85 113 hlineto
          127 94 89 117 91 -56 69 -86 25 hvcurveto
          4 vlineto
          hintmask 11111000
          69 24 48 59 77 vvcurveto
          105 -90 75 -149 -136 -114 -63 -158 vhcurveto
          endchar
        </CharString>
        <CharString name="grave">
          64 callsubr
          75 192 vstem
          183 -31 callsubr
          endchar
        </CharString>
        <CharString name="greater">
          -40 3 507 hstem
          55 474 vstem
          55 3 rmoveto
          474 196 rlineto
          114 vlineto
          -474 197 rlineto
          -99 vlineto
          387 -155 -387 -154 rlineto
          endchar
        </CharString>
        <CharString name="greaterequal">
          -75 0 89 hstem
          38 473 vstem
          38 124 rmoveto
          473 196 rlineto
          113 vlineto
          -473 197 rlineto
          -99 vlineto
          386 -154 -386 -155 rlineto
          -222 vmoveto
          61 callgsubr
        </CharString>
        <CharString name="guillemotleft">
          -68 326 200 0 -20 hstemhm
          62 434 hintmask 01100000
          213 126 rmoveto
          80 hlineto
          hintmask 10100000
          -123 200 123 200 rlineto
          -80 hlineto
          -151 -200 rlineto
          355 -200 39 callsubr
        </CharString>
        <CharString name="guillemotright">
          -68 326 200 0 -20 hstemhm
          56 434 hintmask 01100000
          56 126 rmoveto
          80 hlineto
          hintmask 10100000
          150 200 -150 200 rlineto
          -80 hlineto
          123 -200 rlineto
          81 -200 40 callgsubr
        </CharString>
        <CharString name="guilsinglleft">
          -291 -13 callsubr
          hstem
          56 230 vstem
          207 126 39 callsubr
        </CharString>
        <CharString name="guilsinglright">
          -291 -13 callsubr
          hstem
          47 230 vstem
          47 126 40 callgsubr
        </CharString>
        <CharString name="h">
          21 59 callsubr
          185 -20 hstem
          68 103 234 103 vstem
          68 hmoveto
          -53 callgsubr
          257 -103 hlineto
          endchar
        </CharString>
        <CharString name="hbar">
          21 59 callsubr
          55 65 -65 130 24 callsubr
          hintmask 11011100
          68 hmoveto
          -53 callgsubr
          127 145 hlineto
          hintmask 11101100
          65 -145 vlineto
          hintmask 11011100
          65 -103 vlineto
          hintmask 11101100
          -65 -63 vlineto
          hintmask 11011100
          -65 63 vlineto
          endchar
        </CharString>
        <CharString name="hcircumflex">
          21 59 callsubr
          185 -20 45 135 24 callsubr
          hintmask 00000000
          hintmask 11111100
          -34 748 -98 callgsubr
          -4 -883 rmoveto
          -53 callgsubr
          hlineto
          hintmask 11101100
          257 -103 vlineto
          endchar
        </CharString>
        <CharString name="hookabovecomb">
          -624 591 44 callsubr
          -205 59 -16 83 hintmask 11100000
          -205 66 callgsubr
          hintmask 11010000
          -102 callgsubr
          hintmask 11100000
          -13 hlineto
          endchar
        </CharString>
        <CharString name="house">
          -20 0 49 hstem
          77 48 354 48 vstem
          77 hmoveto
          450 310 hlineto
          -225 253 -225 -253 rlineto
          48 -261 rmoveto
          241 vlineto
          177 199 177 -199 rlineto
          -241 vlineto
          endchar
        </CharString>
        <CharString name="hungarumlaut">
          64 callsubr
          21 326 vstem
          21 591 -59 callgsubr
          endchar
        </CharString>
        <CharString name="hyphen">
          37 callsubr
        </CharString>
        <CharString name="i">
          -385 21 20 callgsubr
          endchar
        </CharString>
        <CharString name="i.loclTRK">
          0 callsubr
          112 105 hstem
          88 103 vstem
          88 35 callsubr
          -723 vmoveto
          -11 callgsubr
        </CharString>
        <CharString name="iacute">
          0 callsubr
          85 132 hstem
          88 103 vstem
          81 -67 callsubr
          -77 -723 -20 callgsubr
        </CharString>
        <CharString name="iacute_j.loclNLD">
          -107 63 callsubr
          85 132 hstem
          88 103 155 103 vstem
          81 -67 callsubr
          190 -132 -96 callgsubr
          -351 -723 rmoveto
          29 callgsubr
          243 -708 -84 callgsubr
        </CharString>
        <CharString name="ibreve">
          0 callsubr
          94 72 -72 123 hstemhm
          88 103 hintmask 11011000
          140 600 -74 callgsubr
          hintmask 11101000
          -21 -3 -20 -30 -58 hhcurveto
          hintmask 11011000
          -59 -17 30 21 -4 hvcurveto
          -70 hlineto
          -58 36 -65 114 vhcurveto
          -52 -600 -20 callgsubr
        </CharString>
        <CharString name="icircumflex">
          0 callsubr
          82 135 -59 59 hstemhm
          88 103 hintmask 11101000
          -14 2 callsubr
          hintmask 11011000
          57 76 rlineto
          hintmask 11101000
          -101 callgsubr
          -4 -723 -20 callgsubr
        </CharString>
        <CharString name="idieresis">
          0 callsubr
          115 102 hstemhm
          -6 96 -2 103 -3 97 hintmask 00000000
          hintmask 11110100
          -6 621 rmoveto
          96 102 -96 hlineto
          194 -102 -41 callsubr
          hintmask 11101000
          -100 -723 -20 callgsubr
        </CharString>
        <CharString name="igrave">
          0 callsubr
          85 132 hstem
          88 103 vstem
          114 -31 callsubr
          82 -720 -20 callgsubr
        </CharString>
        <CharString name="ij">
          -146 40 callsubr
          hstem
          68 103 136 57 callgsubr
          239 -106 42 callsubr
          -239 -723 rmoveto
          29 callgsubr
          224 -708 -84 callgsubr
        </CharString>
        <CharString name="imacron">
          0 callsubr
          133 77 hstem
          88 103 vstem
          4 639 rmoveto
          270 77 -270 hlineto
          84 -716 -20 callgsubr
        </CharString>
        <CharString name="infinity">
          89 141 75 160 78 hstem
          47 80 458 80 vstem
          195 141 rmoveto
          69 48 43 52 43 hvcurveto
          -61 47 52 -34 62 hhcurveto
          88 61 66 92 89 -61 66 -89 -72 -47 -49 -46 -38 hvcurveto
          54 -43 -49 41 -68 hhcurveto
          -91 -60 -68 -89 -90 60 -66 88 hvcurveto
          4 75 rmoveto
          -40 -32 36 44 46 33 34 38 44 30 -30 -50 37 hvcurveto
          -43 -32 -34 -37 -44 hhcurveto
          316 hmoveto
          -41 -32 29 52 -40 hvcurveto
          48 39 30 31 42 hhcurveto
          40 32 -36 -45 -41 -30 -38 -40 hvcurveto
          endchar
        </CharString>
        <CharString name="integral">
          -350 -141 56 889 55 hstem
          85 111 vstem
          30 -141 rmoveto
          91 75 17 95 152 -28 624 0 hvcurveto
          82 callsubr
          -153 27 -621 0 hvcurveto
          -44 -35 -14 -47 vhcurveto
          endchar
        </CharString>
        <CharString name="integralbt">
          -20 -250 55 hstem
          268 83 vstem
          184 -250 rmoveto
          91 76 18 94 80 -7 477 -7 440 hvcurveto
          -86 hlineto
          17 -997 rlineto
          -43 -37 -14 -47 vhcurveto
          endchar
        </CharString>
        <CharString name="integraltp">
          -20 804 55 hstem
          253 83 vstem
          267 -250 rmoveto
          86 hlineto
          -17 997 rlineto
          82 callsubr
          -80 7 -477 7 -440 hvcurveto
          endchar
        </CharString>
        <CharString name="intersection">
          96 21 -21 599 77 hstem
          94 79 373 79 vstem
          94 hmoveto
          79 411 hlineto
          105 83 83 104 103 83 -83 -105 vhcurveto
          -411 79 410 vlineto
          149 -119 117 -147 -147 -118 -117 -149 vhcurveto
          endchar
        </CharString>
        <CharString name="iogonek">
          -346 -190 66 -52 52 -31 -21 197 -31 callgsubr
          112 105 hstemhm
          88 103 hintmask 00111110
          190 723 rmoveto
          -102 -105 102 hlineto
          hintmask 01011110
          -20 -742 rmoveto
          30 callgsubr
          36 1 callgsubr
          -522 -1 hlineto
          hintmask 10011110
          -28 -26 -26 -29 -50 77 callsubr
          hintmask 00111110
          21 21 5 9 22 hvcurveto
          hintmask 01011110
          52 vlineto
          endchar
        </CharString>
        <CharString name="itilde">
          0 callsubr
          107 4 callsubr
          -26 67 47 103 47 66 hintmask 11101100
          -26 613 rmoveto
          67 hlineto
          hintmask 11011100
          -66 callgsubr
          hintmask 11101110
          49 41 -33 54 hhcurveto
          hintmask 11011110
          63 26 51 59 hvcurveto
          -66 hlineto
          hintmask 11101110
          -54 callgsubr
          -49 -42 33 -54 hhcurveto
          hintmask 11101100
          -55 callsubr
          114 -613 -20 callgsubr
        </CharString>
        <CharString name="j">
          -385 -182 82 626 60 callsubr
          -15 -905 -84 callgsubr
        </CharString>
        <CharString name="jcircumflex">
          -385 -182 82 626 -20 82 135 -59 59 hstemhm
          68 103 hintmask 11101000
          -33 588 rmoveto
          96 hlineto
          hintmask 11011000
          58 76 rlineto
          hintmask 11101000
          56 -76 rlineto
          96 hlineto
          -105 135 rlineto
          -95 hlineto
          -20 -905 -84 callgsubr
        </CharString>
        <CharString name="k">
          -107 21 -31 callgsubr
          217 -20 hstem
          68 -35 callsubr
          440 -103 vlineto
          endchar
        </CharString>
        <CharString name="kcommaaccent">
          -107 72 callgsubr
          526 -20 217 -20 hstem
          68 103 60 -35 callsubr
          440 -103 vlineto
          164 -953 rmoveto
          -63 callgsubr
        </CharString>
        <CharString name="kgreenlandic">
          -107 21 -21 526 -20 hstem
          68 -35 callsubr
          243 -103 vlineto
          endchar
        </CharString>
        <CharString name="l">
          -385 21 81 callsubr
          723 -103 hlineto
          endchar
        </CharString>
        <CharString name="lacute">
          -385 21 -21 723 -20 48 132 hstemhm
          68 103 hintmask 00000000
          hintmask 11110000
          77 751 -96 callgsubr
          -93 -883 rmoveto
          103 hlineto
          hintmask 11010000
          723 -103 vlineto
          endchar
        </CharString>
        <CharString name="lcaron">
          -304 21 -21 584 102 -102 139 hstemhm
          68 103 53 101 hintmask 11011000
          68 hmoveto
          103 hlineto
          hintmask 10111000
          723 -103 vlineto
          156 -248 rmoveto
          52 hlineto
          hintmask 11011000
          49 79 callsubr
          40 vlineto
          endchar
        </CharString>
        <CharString name="lcommaaccent">
          -385 -146 94 73 81 callsubr
          723 -103 hlineto
          1 -953 rmoveto
          -63 callgsubr
        </CharString>
        <CharString name="ldot">
          -315 21 -21 299 117 307 -20 hstem
          68 103 51 112 vstem
          68 hmoveto
          103 723 -103 hlineto
          154 -424 -34 callgsubr
          endchar
        </CharString>
        <CharString name="less">
          -40 3 507 hstem
          55 474 vstem
          529 3 rmoveto
          99 vlineto
          -387 154 387 155 rlineto
          99 vlineto
          -474 -197 rlineto
          -114 vlineto
          endchar
        </CharString>
        <CharString name="lessequal">
          -75 0 89 hstem
          38 473 vstem
          511 124 rmoveto
          98 vlineto
          -386 155 386 154 rlineto
          99 vlineto
          -473 -197 rlineto
          -113 vlineto
          -320 vmoveto
          61 callgsubr
        </CharString>
        <CharString name="lira">
          -68 0 89 111 78 69 78 188 85 hstemhm
          103 96 -96 104 205 103 hintmask 11110110
          32 hmoveto
          481 89 hlineto
          hintmask 11111010
          -320 hlineto
          12 111 rlineto
          164 78 hlineto
          hintmask 11110110
          -164 69 164 78 -162 89 21 callgsubr
          -74 -85 -78 85 -69 -85 -78 85 -111 -71 vlineto
          endchar
        </CharString>
        <CharString name="logicalnot">
          -40 359 95 hstem
          445 88 vstem
          445 196 rmoveto
          88 258 -481 -95 393 hlineto
          endchar
        </CharString>
        <CharString name="longs">
          -346 83 callgsubr
          vstem
          85 hmoveto
          103 600 hlineto
          -51 callsubr
          vlineto
          endchar
        </CharString>
        <CharString name="lozenge">
          -35 638 89 0 -20 hstemhm
          54 471 hintmask 01100000
          233 -132 rmoveto
          114 hlineto
          178 430 -178 429 rlineto
          -114 hlineto
          -179 -429 rlineto
          236 -341 rmoveto
          -134 341 rlineto
          hintmask 10100000
          134 340 134 -340 rlineto
          endchar
        </CharString>
        <CharString name="lslash">
          -385 21 81 callsubr
          352 hlineto
          67 53 rlineto
          85 vlineto
          -67 -53 rlineto
          286 -103 -365 vlineto
          -68 -54 rlineto
          -85 vlineto
          68 54 rlineto
          endchar
        </CharString>
        <CharString name="m">
          226 36 callgsubr
          hstemhm
          68 103 204 103 204 103 hintmask 11011100
          68 hmoveto
          59 callgsubr
          86 53 55 64 51 36 -22 -77 vhcurveto
          -351 103 309 vlineto
          86 51 55 64 51 38 -22 -77 vhcurveto
          -351 103 371 vlineto
          123 -66 44 -92 -67 -58 -31 -51 -36 vhcurveto
          -6 hlineto
          58 -25 -50 24 -62 hhcurveto
          -67 -53 -30 -52 -35 hvcurveto
          -7 hlineto
          hintmask 10111100
          28 callsubr
        </CharString>
        <CharString name="macron">
          37 callgsubr
        </CharString>
        <CharString name="minus">
          -40 211 89 hstem
          56 472 vstem
          56 211 rmoveto
          472 89 -472 hlineto
          endchar
        </CharString>
        <CharString name="minute">
          -421 512 174 hstem
          50 140 vstem
          50 512 41 callsubr
          endchar
        </CharString>
        <CharString name="multiply">
          -40 43 425 hstem
          79 425 vstem
          142 43 rmoveto
          149 149 150 -149 63 63 -149 149 149 150 -63 63 -150 -150 -149 150 -63 -63 150 -150 -150 -149 rlineto
          endchar
        </CharString>
        <CharString name="n">
          36 callgsubr
          24 callsubr
          hintmask 11011000
          68 hmoveto
          103 309 hlineto
          -87 callsubr
          hintmask 10111000
          28 callsubr
        </CharString>
        <CharString name="nacute">
          36 callgsubr
          85 132 24 callsubr
          hintmask 11011100
          60 callgsubr
          -260 -723 rmoveto
          103 309 hlineto
          -87 callsubr
          hintmask 10111100
          28 callsubr
        </CharString>
        <CharString name="nacute.loclPLK">
          36 callgsubr
          85 132 24 callsubr
          hintmask 11011100
          244 11 callsubr
          -203 -723 rmoveto
          103 309 hlineto
          -87 callsubr
          hintmask 10111100
          28 callsubr
        </CharString>
        <CharString name="napostrophe">
          12 21 59 callsubr
          -63 51 58 102 hstemhm
          -1 101 31 -26 callsubr
          hintmask 00000000
          hintmask 10111110
          -1 475 rmoveto
          53 hlineto
          48 79 callsubr
          41 vlineto
          91 -584 rmoveto
          59 callgsubr
          hintmask 11011110
          -87 callsubr
          hintmask 10111110
          28 callsubr
        </CharString>
        <CharString name="ncaron">
          36 callgsubr
          82 135 24 callsubr
          hintmask 11011100
          239 588 -99 callgsubr
          -65 -723 rmoveto
          103 309 hlineto
          -87 callsubr
          hintmask 10111100
          28 callsubr
        </CharString>
        <CharString name="ncommaaccent">
          -146 94 73 9 callsubr
          hstemhm
          68 103 64 103 67 103 hintmask 11101110
          68 hmoveto
          103 309 hlineto
          -87 callsubr
          hintmask 11011110
          -10 70 rlineto
          -83 hlineto
          168 -756 rmoveto
          -63 callgsubr
        </CharString>
        <CharString name="nine">
          -68 -12 85 173 83 284 85 hstemhm
          36 106 -84 105 248 106 hintmask 00000000
          hintmask 11101100
          268 -12 rmoveto
          160 89 93 282 254 -95 81 -158 hvcurveto
          hintmask 11110100
          -131 -97 -87 -139 -128 68 -98 148 75 57 35 33 27 hvcurveto
          -148 -2 -24 -93 -112 hhcurveto
          hintmask 11101100
          -75 -35 47 82 hvcurveto
          -105 hlineto
          -122 62 -92 148 vhcurveto
          hintmask 11110100
          3 341 rmoveto
          -89 -40 61 79 80 40 64 89 89 42 -63 -78 -81 -42 -62 -89 hvcurveto
          endchar
        </CharString>
        <CharString name="notequal">
          -75 103 89 123 90 hstem
          38 473 vstem
          116 25 rmoveto
          72 hlineto
          42 78 rlineto
          281 89 -234 hlineto
          66 123 rlineto
          168 90 -120 hlineto
          42 79 rlineto
          -72 hlineto
          -43 -79 rlineto
          -280 -90 232 hlineto
          -65 -123 rlineto
          -167 -89 119 hlineto
          endchar
        </CharString>
        <CharString name="ntilde">
          36 callgsubr
          107 4 callsubr
          68 103 -49 -14 callsubr
          -47 103 -10 callgsubr
          hintmask 1101001010000000
          122 613 rmoveto
          66 hlineto
          hintmask 1100101010000000
          -66 callgsubr
          hintmask 1101010100000000
          -53 callsubr
          hintmask 1100110100000000
          -73 callsubr
          hintmask 1101001100000000
          -48 callsubr
          hintmask 1101001010000000
          -55 callsubr
          hintmask 1100110010000000
          -54 -613 rmoveto
          103 309 hlineto
          -87 callsubr
          hintmask 1010110010000000
          28 callsubr
        </CharString>
        <CharString name="numbersign">
          -68 9 -21 186 86 145 86 207 -20 hstem
          10 533 vstem
          45 -12 -6 callsubr
          40 186 rlineto
          143 hlineto
          -40 -186 rlineto
          85 hlineto
          40 186 rlineto
          100 86 -82 hlineto
          31 145 rlineto
          96 86 -77 hlineto
          45 207 rlineto
          -86 hlineto
          -45 -207 rlineto
          -143 hlineto
          46 207 rlineto
          -86 hlineto
          -45 -207 rlineto
          -97 -86 79 hlineto
          -32 -145 rlineto
          -92 -86 74 hlineto
          104 86 rmoveto
          31 145 rlineto
          143 hlineto
          -32 -145 rlineto
          endchar
        </CharString>
        <CharString name="o">
          -39 callsubr
          24 callgsubr
          286 -12 -103 callgsubr
        </CharString>
        <CharString name="oacute">
          2 callgsubr
          60 callgsubr
          -42 -92 callgsubr
        </CharString>
        <CharString name="oacute.loclPLK">
          2 callgsubr
          244 11 callsubr
          15 -92 callgsubr
        </CharString>
        <CharString name="obreve">
          -39 callsubr
          49 callgsubr
          42 callgsubr
          hintmask 11011100
          286 600 -74 callgsubr
          hintmask 11101100
          -49 callsubr
          hintmask 11011100
          -90 callgsubr
          -612 vmoveto
          -105 callgsubr
          endchar
        </CharString>
        <CharString name="ocircumflex">
          -39 callsubr
          50 135 -59 59 42 callgsubr
          hintmask 11101100
          133 2 callsubr
          hintmask 11011100
          57 76 rlineto
          hintmask 11101100
          -92 callsubr
          endchar
        </CharString>
        <CharString name="odieresis">
          -39 callsubr
          83 102 hstemhm
          36 106 -1 97 97 97 -1 106 hintmask 00000000
          hintmask 11101100
          141 621 -88 callgsubr
          hintmask 11110010
          -49 -92 callgsubr
        </CharString>
        <CharString name="oe">
          320 -12 85 164 78 138 85 hstem
          36 106 286 80 callgsubr
          vstem
          285 -12 rmoveto
          89 65 29 58 42 hvcurveto
          -58 41 66 -29 91 hhcurveto
          129 100 62 131 hvcurveto
          -101 hlineto
          -78 -56 -32 -71 -98 -43 54 112 -5 vhcurveto
          374 40 hlineto
          185 -79 76 -150 -91 -66 -29 -59 -41 vhcurveto
          59 -42 -65 29 -89 hhcurveto
          -164 -85 -86 -189 -189 85 -86 164 hvcurveto
          251 327 rmoveto
          98 10 43 42 90 hhcurveto
          74 48 -39 -101 hvcurveto
          -516 -242 rmoveto
          -100 -43 57 131 hvcurveto
          8 vlineto
          127 43 57 100 101 42 -58 -133 vhcurveto
          -1 vlineto
          -131 -42 -57 -101 vhcurveto
          endchar
        </CharString>
        <CharString name="ogonek">
          -291 -182 66 -66 194 hstemhm
          79 86 hintmask 10100000
          182 -5 callgsubr
        </CharString>
        <CharString name="ograve">
          2 callgsubr
          244 -31 callsubr
          150 -732 -103 callgsubr
        </CharString>
        <CharString name="ohorn">
          -39 callsubr
          31 117 42 callgsubr
          -29 132 hintmask 00000000
          hintmask 11110100
          508 686 -73 callgsubr
          hintmask 11111000
          -19 callgsubr
          hintmask 11110100
          18 callsubr
          hintmask 11111000
          -69 callsubr
          endchar
        </CharString>
        <CharString name="ohungarumlaut">
          2 callgsubr
          169 591 -59 callgsubr
          -100 -92 callgsubr
        </CharString>
        <CharString name="omacron">
          -39 callsubr
          84 77 24 callgsubr
          134 622 -47 callgsubr
          152 -711 -103 callgsubr
        </CharString>
        <CharString name="one">
          -68 0 85 463 63 75 -20 hstem
          263 103 vstem
          91 hmoveto
          434 85 -159 601 -45 hlineto
          -69 -39 -102 -30 -60 -6 rrcurveto
          -63 173 -463 -172 vlineto
          endchar
        </CharString>
        <CharString name="oneeighth">
          50 callgsubr
          -31 14 callgsubr
          329 65 callgsubr
          hintmask 1101010100000000
          109 -12 rmoveto
          77 hlineto
          hintmask 1101001100000000
          546 710 rlineto
          -77 hlineto
          -606 51 callsubr
          hintmask 1101010100000000
          296 -34 vlineto
          hintmask 1101100100000000
          48 callgsubr
          hintmask 1101010110010000
          -45 87 -213 -87 vlineto
          613 -402 22 callgsubr
          hintmask 1110010101100000
          -24 callsubr
          hintmask 1101010110000000
          78 callgsubr
          hintmask 1101010110010000
          -61 37 -48 91 vhcurveto
          hintmask 1110010101100000
          -23 callgsubr
          hintmask 1101010110010000
          -28 callsubr
        </CharString>
        <CharString name="onehalf">
          210 0 62 -53 -21 318 60 -38 14 callgsubr
          323 253 -250 70 108 70 -10 callgsubr
          hintmask 0101001100000000
          106 -12 -1 callgsubr
          -603 51 callsubr
          hintmask 1001010100000000
          296 -34 vlineto
          hintmask 1001100100000000
          48 callgsubr
          hintmask 1001010110000000
          -45 87 -213 -87 vlineto
          479 -390 58 callgsubr
          17 22 17 rrcurveto
          hintmask 1010010101100000
          51 36 59 44 67 vvcurveto
          61 -39 46 -79 -69 -61 -33 -77 -7 1 -11 2 -7 vhcurveto
          67 23 hlineto
          30 16 22 42 39 11 -26 -19 -12 -3 -14 -9 -11 vhcurveto
          hintmask 1001010110000000
          -15 -22 -26 -20 -28 -20 rrcurveto
          -49 -37 -51 -38 -63 vvcurveto
          endchar
        </CharString>
        <CharString name="onequarter">
          92 callgsubr
          189 14 callgsubr
          461 69 -10 callgsubr
          hintmask 0101001110000000
          106 -12 -1 callgsubr
          -603 51 callsubr
          hintmask 1001010110000000
          296 -34 vlineto
          hintmask 1001100110000000
          48 callgsubr
          hintmask 1001010110000000
          -45 87 -213 -87 vlineto
          617 -390 rmoveto
          69 hlineto
          hintmask 0011010110000000
          79 44 vlineto
          hintmask 1001010110000000
          26 callsubr
          hintmask 0011010110000000
          69 callsubr
        </CharString>
        <CharString name="ordfeminine">
          -254 375 57 105 54 89 56 hstemhm
          25 76 -59 73 128 73 hintmask 11110100
          338 432 rmoveto
          -10 -12 6 16 hvcurveto
          180 vlineto
          64 -43 38 -91 vhcurveto
          hintmask 11101100
          -83 -57 -35 -62 hvcurveto
          -16 73 10 vlineto
          23 15 24 50 51 12 -22 -30 vhcurveto
          -37 vlineto
          hintmask 11110100
          -126 -92 -23 -96 -84 71 -13 42 49 36 17 27 24 hvcurveto
          2 hlineto
          -26 8 26 -16 33 hhcurveto
          22 17 4 5 8 hvcurveto
          46 vlineto
          -120 81 rmoveto
          -52 -40 -29 -46 -37 -19 13 32 50 61 10 81 vhcurveto
          endchar
        </CharString>
        <CharString name="ordmasculine">
          -259 374 58 246 58 hstem
          22 76 170 76 vstem
          183 374 rmoveto
          106 55 57 124 124 -55 57 -106 -106 -55 -57 -124 -124 55 -57 106 hvcurveto
          58 vmoveto
          -61 -24 38 84 hvcurveto
          6 vlineto
          81 24 37 61 61 24 -40 -84 -84 -24 -38 -61 vhcurveto
          endchar
        </CharString>
        <CharString name="orthogonal">
          355 0 73 hstem
          177 79 vstem
          177 hmoveto
          625 73 -546 552 -79 hlineto
          endchar
        </CharString>
        <CharString name="oslash">
          -13 -39 callsubr
          hstem
          55 106 288 107 vstem
          45 -49 -60 callsubr
        </CharString>
        <CharString name="oslashacute">
          -13 -39 callsubr
          53 132 hstem
          55 106 288 107 vstem
          263 -67 callsubr
          -302 -772 -60 callsubr
        </CharString>
        <CharString name="otilde">
          -39 callsubr
          75 4 callsubr
          36 106 -20 -14 callsubr
          -21 106 hintmask 00000000
          hintmask 11100101
          122 613 rmoveto
          66 hlineto
          hintmask 11010101
          -66 callgsubr
          hintmask 11101010
          -53 callsubr
          hintmask 11011010
          -73 callsubr
          hintmask 11100110
          -48 callsubr
          hintmask 11100101
          -55 callsubr
          hintmask 11011001
          164 -625 -103 callgsubr
        </CharString>
        <CharString name="p">
          64 callgsubr
          -12 -20 hstemhm
          68 103 260 106 hintmask 11101100
          38 callgsubr
          192 -79 83 -129 -68 -60 -28 -54 -34 hvcurveto
          -7 hlineto
          hintmask 11011100
          -10 70 rlineto
          -82 hlineto
          232 -451 rmoveto
          -91 -38 66 117 hvcurveto
          8 vlineto
          hintmask 11101100
          119 38 66 91 94 37 -52 -133 vhcurveto
          -9 vlineto
          hintmask 11011100
          -131 -36 -51 -95 vhcurveto
          endchar
        </CharString>
        <CharString name="paragraph">
          -81 625 61 hstem
          233 84 66 84 vstem
          233 -168 rmoveto
          84 793 66 -793 84 793 61 61 -266 hlineto
          -136 -108 -58 -160 -145 105 -70 110 hvcurveto
          endchar
        </CharString>
        <CharString name="parenleft">
          -291 735 -20 hstem
          57 102 vstem
          232 -157 rmoveto
          68 hlineto
          -79 122 -62 169 156 vvcurveto
          156 62 167 79 122 vhcurveto
          -68 hlineto
          -112 -121 -63 -158 -161 vvcurveto
          -167 63 -160 112 -125 vhcurveto
          endchar
        </CharString>
        <CharString name="parenright">
          -291 735 -20 hstem
          191 102 vstem
          50 -157 rmoveto
          68 hlineto
          113 123 62 158 164 vvcurveto
          164 -62 160 -113 123 vhcurveto
          -68 hlineto
          80 -120 61 -165 -153 vvcurveto
          -158 -61 -172 -80 -124 vhcurveto
          endchar
        </CharString>
        <CharString name="partialdiff">
          -130 -12 82 303 76 208 78 hstem
          43 100 210 95 vstem
          216 -12 rmoveto
          150 82 148 247 250 -112 102 -115 -53 -36 -13 -16 -29 hvcurveto
          -83 vlineto
          18 25 33 16 46 hhcurveto
          84 62 -106 -136 -9 0 -19 -1 -6 hvcurveto
          -4 hlineto
          26 -13 -38 42 -66 hhcurveto
          -97 -91 -93 -152 -116 59 -100 114 hvcurveto
          7 82 rmoveto
          -50 -30 53 78 92 45 80 60 53 33 -44 -36 11 hvcurveto
          -114 -9 -44 -109 -69 hhcurveto
          endchar
        </CharString>
        <CharString name="percent">
          265 -12 66 -33 -21 283 66 -12 66 229 66 -12 -20 hstemhm
          56 86 142 85 152 85 143 85 hintmask 1001101111000000
          213 337 rmoveto
          98 58 41 139 139 -58 42 -98 -98 -59 -42 -139 -138 59 -42 98 hvcurveto
          hintmask 0101011111000000
          -60 -337 rmoveto
          86 hlineto
          500 686 rlineto
          -88 hlineto
          -438 -283 rmoveto
          -58 -13 42 67 hvcurveto
          10 vlineto
          hintmask 1001101111000000
          68 13 42 58 57 14 -42 -68 vhcurveto
          -10 vlineto
          hintmask 0101011111000000
          -67 -14 -42 -57 vhcurveto
          hintmask 1010101111000000
          465 -415 rmoveto
          97 59 41 139 139 -59 42 -97 -98 -59 -42 -139 -138 59 -42 98 hvcurveto
          66 vmoveto
          -58 -14 43 69 hvcurveto
          7 vlineto
          68 14 42 58 57 14 -42 -68 vhcurveto
          -7 vlineto
          -69 -14 -43 -57 vhcurveto
          endchar
        </CharString>
        <CharString name="period">
          -346 0 117 hstem
          85 111 vstem
          85 hmoveto
          111 117 -111 hlineto
          endchar
        </CharString>
        <CharString name="periodcentered">
          -291 299 117 hstem
          110 112 vstem
          110 299 -34 callgsubr
          endchar
        </CharString>
        <CharString name="perthousand">
          376 -13 66 -32 -21 282 66 -11 66 229 66 -12 -20 hstemhm
          18 85 114 85 71 85 115 84 40 86 114 84 -10 callgsubr
          hintmask 0101101100000000
          160 337 rmoveto
          90 52 41 139 139 -52 42 -90 -89 -53 -42 -139 -138 53 -42 89 hvcurveto
          -45 -337 rmoveto
          71 hlineto
          hintmask 0001011100000000
          376 686 rlineto
          -73 hlineto
          -329 -283 rmoveto
          -47 -10 42 67 hvcurveto
          10 vlineto
          hintmask 0000101100000000
          68 10 42 47 48 9 -42 -68 vhcurveto
          -10 vlineto
          hintmask 0001011100000000
          -67 -9 -42 -48 vhcurveto
          hintmask 1010000011110000
          356 -416 rmoveto
          38 callsubr
          324 hmoveto
          38 callsubr
          -324 66 rmoveto
          -48 -10 42 67 hvcurveto
          10 vlineto
          68 10 42 48 75 callsubr
          324 hmoveto
          -47 -10 42 67 hvcurveto
          10 vlineto
          68 10 42 47 75 callsubr
          endchar
        </CharString>
        <CharString name="peseta">
          470 -12 82 -81 84 -52 -21 58 15 182 95 91 85 -71 83 53 95 hstemhm
          75 110 329 101 54 97 -86 104 -96 7 250 99 -91 104 -10 callgsubr
          hintmask 0100110111001010
          622 -11 rmoveto
          32 29 9 5 12 hvcurveto
          hintmask 0001110111001010
          55 vlineto
          hintmask 1000101111010010
          -42 29 54 -28 84 hhcurveto
          111 84 47 117 hvcurveto
          202 -273 -69 108 vvcurveto
          28 16 34 61 vhcurveto
          hintmask 1000101111010100
          60 24 -34 -40 hvcurveto
          -7 98 vlineto
          1 20 rlineto
          82 -66 62 -109 vhcurveto
          hintmask 0010110111010010
          -31 -27 -4 -8 -25 hvcurveto
          -171 147 -80 hlineto
          -20 -147 rlineto
          -35 hlineto
          97 -18 -71 63 -124 hhcurveto
          -192 -686 110 255 79 hlineto
          128 80 72 114 12 hvcurveto
          30 -332 hlineto
          hintmask 0100110111001010
          -60 26 -60 82 vhcurveto
          hintmask 1000110111100010
          -437 361 rmoveto
          241 76 vlineto
          76 39 -44 -75 -76 -44 -46 -71 hvcurveto
          606 -280 rmoveto
          -55 -45 25 61 -1 hvcurveto
          9 vlineto
          hintmask 0100110111100010
          -96 hlineto
          -3 -1 -5 -11 vvcurveto
          hintmask 0100110111001010
          -26 6 -25 13 -22 vhcurveto
          -29 hlineto
          -30 -14 16 30 hvcurveto
          322 vlineto
          hintmask 1000110111010010
          76 hlineto
          -7 -16 -4 -19 -21 -193 273 72 -125 vvcurveto
          hintmask 1000110111100010
          -47 -41 -22 -45 vhcurveto
          endchar
        </CharString>
        <CharString name="pi">
          89 90 callgsubr
          hstem
          176 104 190 104 vstem
          95 hmoveto
          103 hlineto
          40 87 33 229 9 125 rrcurveto
          190 -294 hlineto
          -80 8 -51 11 -16 vhcurveto
          101 hlineto
          -10 30 -6 44 82 vvcurveto
          285 99 vlineto
          10 85 rlineto
          -470 hlineto
          -99 -58 -11 -19 -29 hvcurveto
          15 -68 rlineto
          9 27 34 4 73 hhcurveto
          -4 -125 -35 -212 -42 -104 rrcurveto
          endchar
        </CharString>
        <CharString name="plus">
          -40 21 -21 210 90 hstem
          247 89 vstem
          247 hmoveto
          46 callgsubr
          endchar
        </CharString>
        <CharString name="plusminus">
          -75 0 89 255 90 hstem
          230 89 vstem
          230 134 rmoveto
          46 callgsubr
          -192 -344 rmoveto
          61 callgsubr
        </CharString>
        <CharString name="product">
          199 629 94 hstem
          137 110 328 109 vstem
          137 -128 rmoveto
          110 757 328 -757 109 757 98 94 -741 -94 96 hlineto
          endchar
        </CharString>
        <CharString name="q">
          64 callgsubr
          -12 -20 77 callgsubr
          hintmask 11101100
          402 -173 rmoveto
          103 hlineto
          hintmask 11011100
          699 -82 vlineto
          hintmask 11101100
          -10 -70 rlineto
          -7 hlineto
          54 -34 -60 28 -68 hhcurveto
          -129 -79 -83 -192 -191 82 -84 119 73 52 23 49 34 hvcurveto
          6 hlineto
          -129 15 rmoveto
          -95 -36 51 131 hvcurveto
          9 vlineto
          133 37 52 94 90 39 -66 -119 vhcurveto
          -8 vlineto
          -117 -38 -66 -91 vhcurveto
          endchar
        </CharString>
        <CharString name="question">
          0 117 491 90 hstemhm
          54 106 66 112 -105 99 71 108 hintmask 00000000
          hintmask 11101100
          233 185 rmoveto
          99 37 hlineto
          116 179 -10 192 vvcurveto
          112 -87 66 -128 -164 -78 -92 -112 -14 3 -21 0 vhcurveto
          104 hlineto
          0 -1 11 16 vvcurveto
          42 14 80 114 103 12 -69 -32 vhcurveto
          -117 -170 -7 -146 vvcurveto
          hintmask 11110100
          -7 -237 -34 callgsubr
          endchar
        </CharString>
        <CharString name="questiondown">
          -13 -172 90 491 117 hstemhm
          82 109 65 111 -105 99 72 106 hintmask 11110100
          256 409 rmoveto
          111 117 -111 hlineto
          42 -698 rmoveto
          163 78 92 112 14 -3 21 0 hvcurveto
          -104 hlineto
          0 1 -11 -16 vvcurveto
          -42 -14 -80 -114 -102 -12 69 32 vhcurveto
          hintmask 11101100
          117 170 7 146 vvcurveto
          52 -99 -37 vlineto
          -116 -180 10 -192 vvcurveto
          hintmask 11110100
          -112 88 -66 128 vhcurveto
          endchar
        </CharString>
        <CharString name="quotedbl">
          -233 408 278 hstemhm
          48 115 65 115 hintmask 00000000
          hintmask 11100000
          73 408 rmoveto
          66 hlineto
          24 57 callsubr
          205 -132 rmoveto
          65 hlineto
          25 57 callsubr
          endchar
        </CharString>
        <CharString name="quotedblbase">
          -240 0 117 hstem
          51 111 62 112 vstem
          51 -141 27 callsubr
          129 -141 -4 callsubr
        </CharString>
        <CharString name="quotedblleft">
          -240 428 117 141 -20 hstem
          48 112 62 112 vstem
          48 428 rmoveto
          112 117 -44 hlineto
          44 141 rlineto
          -58 hlineto
          -54 -151 rlineto
          174 -107 82 callgsubr
          -59 hlineto
          -53 -151 rlineto
          endchar
        </CharString>
        <CharString name="quotedblright">
          -240 569 117 hstem
          51 111 62 112 vstem
          51 428 27 callsubr
          129 -141 -4 callsubr
        </CharString>
        <CharString name="quoteleft">
          -385 428 117 141 -20 hstem
          67 112 vstem
          67 428 82 callgsubr
          -58 hlineto
          -54 -151 rlineto
          endchar
        </CharString>
        <CharString name="quotereversed">
          -385 569 117 hstem
          68 112 vstem
          121 435 rmoveto
          59 hlineto
          -45 134 rlineto
          45 117 -112 -107 hlineto
          endchar
        </CharString>
        <CharString name="quoteright">
          -385 569 117 hstem
          60 112 vstem
          60 428 -4 callsubr
        </CharString>
        <CharString name="quotesinglbase">
          -385 0 117 hstem
          64 111 vstem
          64 -141 27 callsubr
          endchar
        </CharString>
        <CharString name="quotesingle">
          -419 408 278 hstemhm
          47 115 hintmask 00000000
          hintmask 11000000
          72 408 rmoveto
          65 hlineto
          25 57 callsubr
          endchar
        </CharString>
        <CharString name="r">
          -274 21 81 callgsubr
          hintmask 11001000
          68 hmoveto
          103 294 hlineto
          98 54 40 75 vhcurveto
          37 hlineto
          hintmask 10011000
          98 vlineto
          hintmask 11001000
          0 -20 8 -29 -69 -34 -46 -47 -18 vhcurveto
          -6 hlineto
          hintmask 10101000
          -10 81 rlineto
          -83 hlineto
          endchar
        </CharString>
        <CharString name="racute">
          7 callsubr
          81 132 hstemhm
          68 103 hintmask 11001100
          133 -67 callsubr
          -149 -723 -64 callsubr
        </CharString>
        <CharString name="radical">
          -75 -148 1005 hstem
          30 518 vstem
          290 -148 rmoveto
          96 hlineto
          162 1005 rlineto
          -73 hlineto
          -135 -871 -7 24 -8 27 -10 28 rlinecurve
          -120 327 -165 -69 22 -66 72 28 rlineto
          endchar
        </CharString>
        <CharString name="rcaron">
          7 callsubr
          78 135 hstemhm
          68 103 hintmask 11001100
          128 588 -99 callgsubr
          46 -723 -64 callsubr
        </CharString>
        <CharString name="rcommaaccent">
          -274 -146 94 73 -20 callsubr
          -756 rmoveto
          -63 callgsubr
        </CharString>
        <CharString name="registered">
          113 -12 52 257 59 135 59 96 52 hstem
          13 54 156 71 174 72 129 -40 callsubr
          -145 98 rmoveto
          71 159 107 hlineto
          80 -159 rlineto
          75 hlineto
          -87 171 rlineto
          48 19 23 43 55 vvcurveto
          73 -42 51 -85 vhcurveto
          -190 hlineto
          71 -194 rmoveto
          135 109 vlineto
          42 23 -23 -42 -45 -26 -25 -39 hvcurveto
          endchar
        </CharString>
        <CharString name="revlogicalnot">
          -40 359 95 hstem
          52 88 vstem
          52 196 rmoveto
          88 163 393 95 -481 hlineto
          endchar
        </CharString>
        <CharString name="ring">
          -291 563 49 97 49 hstem
          69 49 98 49 vstem
          167 563 -71 callgsubr
          endchar
        </CharString>
        <CharString name="s">
          -107 -12 82 385 83 13 callgsubr
          hintmask 00000000
          hintmask 11100100
          257 -12 rmoveto
          128 95 47 117 hvcurveto
          hintmask 11010100
          -44 callgsubr
          hintmask 11011000
          -75 callgsubr
          hintmask 11010100
          -44 callsubr
          hintmask 11100100
          -60 callgsubr
          endchar
        </CharString>
        <CharString name="sacute">
          25 callgsubr
          84 hlineto
          108 129 -1 3 rlineto
          -107 hlineto
          hintmask 11110010
          -43 -80 callsubr
        </CharString>
        <CharString name="sacute.loclPLK">
          25 callgsubr
          85 hlineto
          48 130 -1 2 rlineto
          -105 hlineto
          hintmask 11110010
          14 -80 callsubr
        </CharString>
        <CharString name="scaron">
          -107 -12 82 385 83 50 135 13 callgsubr
          hintmask 11101010
          211 588 -99 callgsubr
          hintmask 11110010
          152 -80 callsubr
        </CharString>
        <CharString name="scedilla">
          -107 33 callsubr
          24 81 70 callgsubr
          143 83 -16 102 -91 105 hintmask 1001101001000000
          480 152 rmoveto
          -44 callgsubr
          hintmask 1001101010000000
          -75 callgsubr
          hintmask 1001101001000000
          -44 callsubr
          hintmask 1001110001000000
          -67 -57 25 61 hvcurveto
          9 -101 vlineto
          -1 -1 -7 -11 vvcurveto
          -78 58 -68 127 -11 vhcurveto
          hintmask 1011101100000000
          -11 -66 -16 callsubr
          hintmask 0101101001000000
          -49 vlineto
          hintmask 1011101100000000
          11 callgsubr
          -51 3 hvcurveto
          hintmask 1001101100000000
          4 24 rlineto
          hintmask 1001101001000000
          111 8 79 48 107 vvcurveto
          endchar
        </CharString>
        <CharString name="scircumflex">
          -107 -12 82 385 83 50 135 -59 59 13 callgsubr
          hintmask 11100101
          105 2 callsubr
          hintmask 11010101
          57 76 rlineto
          hintmask 11101001
          -101 callgsubr
          46 -735 rmoveto
          128 95 47 117 hvcurveto
          hintmask 11100101
          -44 callgsubr
          hintmask 11100110
          -75 callgsubr
          hintmask 11100101
          -44 callsubr
          hintmask 11101001
          -60 callgsubr
          endchar
        </CharString>
        <CharString name="scommaaccent">
          -107 -146 94 40 82 70 callgsubr
          53 103 -58 callsubr
          -49 -218 rmoveto
          hintmask 11101101
          -63 callgsubr
        </CharString>
        <CharString name="second">
          -232 512 174 hstem
          50 300 vstem
          50 512 41 callsubr
          130 -174 41 callsubr
          endchar
        </CharString>
        <CharString name="section">
          -68 -182 82 715 83 hstemhm
          42 102 -87 108 226 108 -87 102 hintmask 00000000
          hintmask 11011000
          270 -182 rmoveto
          141 88 56 97 64 -34 40 -45 30 hvcurveto
          hintmask 11010100
          50 28 44 46 60 203 -349 -25 124 vvcurveto
          29 19 45 93 vhcurveto
          hintmask 11011000
          84 30 -34 -40 hvcurveto
          -7 107 vlineto
          2 1 10 8 vvcurveto
          82 -80 62 -133 -141 -88 -56 -97 -64 33 -41 46 -30 vhcurveto
          hintmask 11101000
          -50 -27 -44 -46 -60 -203 349 25 -125 vvcurveto
          -29 -20 -45 -92 vhcurveto
          hintmask 11010100
          -84 -30 34 41 hvcurveto
          7 -107 vlineto
          -2 -1 -10 -8 vvcurveto
          hintmask 11011000
          -82 80 -62 133 vhcurveto
          hintmask 11100100
          80 324 rmoveto
          -98 40 -108 27 91 vvcurveto
          31 24 26 37 16 vhcurveto
          99 -40 108 -26 -91 vvcurveto
          -32 -26 -25 -36 -17 vhcurveto
          endchar
        </CharString>
        <CharString name="semicolon">
          -329 0 117 292 117 hstem
          91 112 vstem
          91 409 -34 callgsubr
          -667 vmoveto
          59 hlineto
          53 151 rlineto
          107 -112 -117 45 vlineto
          endchar
        </CharString>
        <CharString name="seven">
          -68 21 -21 590 96 hstem
          141 112 vstem
          141 hmoveto
          113 hlineto
          -1 24 0 8 19 vvcurveto
          211 151 219 121 140 vhcurveto
          65 -489 -96 351 vlineto
          -114 -142 -132 -216 -232 vvcurveto
          endchar
        </CharString>
        <CharString name="seveneighths">
          50 callgsubr
          265 62 12 -20 hstemhm
          116 73 328 65 callgsubr
          hintmask 1111011001000000
          89 -12 rmoveto
          76 hlineto
          hintmask 1110111001000000
          546 710 rlineto
          -76 hlineto
          -519 -371 rmoveto
          74 hlineto
          -1 16 0 9 9 vvcurveto
          hintmask 1111011001000000
          102 76 107 59 70 vhcurveto
          46 -261 -62 175 vlineto
          hintmask 1110111001000000
          -63 -77 -59 -103 -117 vvcurveto
          hintmask 1111011001000000
          529 -339 22 callgsubr
          hintmask 1111010110000000
          -24 callsubr
          hintmask 1111011001000000
          78 callgsubr
          -61 37 -48 91 vhcurveto
          hintmask 1111010110000000
          -23 callgsubr
          hintmask 1111011001000000
          -28 callsubr
        </CharString>
        <CharString name="six">
          -68 -12 85 284 83 173 85 hstemhm
          39 106 248 105 -84 106 hintmask 11110100
          292 -12 rmoveto
          131 97 87 139 128 -67 98 -146 -75 -59 -35 -33 -28 hvcurveto
          148 2 24 93 112 hhcurveto
          hintmask 11111000
          75 35 -47 -82 hvcurveto
          105 hlineto
          122 -62 92 -148 -160 -89 -93 -282 vhcurveto
          hintmask 11110100
          -254 95 -81 158 vhcurveto
          -7 85 rmoveto
          -89 -42 63 78 81 42 62 89 89 40 -61 -79 -80 -40 -64 -89 hvcurveto
          endchar
        </CharString>
        <CharString name="slash">
          93 callsubr
          1 -49 rmoveto
          79 hlineto
          197 784 rlineto
          -78 hlineto
          endchar
        </CharString>
        <CharString name="space">
          -346 endchar
        </CharString>
        <CharString name="sterling">
          -68 0 89 208 85 231 85 hstem
          103 104 205 103 vstem
          32 hmoveto
          481 89 -320 hlineto
          12 208 rlineto
          164 85 -162 132 21 callgsubr
          -117 -85 -85 85 -208 -71 vlineto
          endchar
        </CharString>
        <CharString name="summation">
          89 -128 99 660 92 hstem
          59 631 vstem
          59 -128 rmoveto
          631 99 -492 4 hlineto
          300 340 -277 312 rlineto
          4 450 92 -602 -81 vlineto
          300 -343 -310 -353 rlineto
          endchar
        </CharString>
        <CharString name="t">
          -329 -11 84 368 85 hstem
          80 103 vstem
          194 -11 rmoveto
          -57 callsubr
          89 callgsubr
          endchar
        </CharString>
        <CharString name="tbar">
          -329 -11 84 187 65 116 85 hstem
          80 103 vstem
          194 -11 62 callsubr
          141 89 65 -89 116 89 85 -89 147 -82 vlineto
          -20 -147 rlineto
          -65 -85 64 -116 -64 -65 64 -151 hlineto
          89 callgsubr
          endchar
        </CharString>
        <CharString name="tcaron">
          -217 -11 84 368 85 -25 25 84 102 hstemhm
          80 103 123 101 hintmask 00000000
          hintmask 10111100
          306 501 rmoveto
          53 hlineto
          48 117 rlineto
          94 -101 -102 40 vlineto
          -152 -621 62 callsubr
          hintmask 11011100
          322 89 85 -89 147 -82 vlineto
          -20 -147 rlineto
          -65 -85 64 -332 hlineto
          hintmask 10111100
          89 callgsubr
          endchar
        </CharString>
        <CharString name="thorn">
          64 callgsubr
          189 -20 hstem
          68 103 260 106 vstem
          38 callgsubr
          191 -81 84 -120 -73 -52 -23 -49 -34 hvcurveto
          -6 261 -103 hlineto
          232 -652 rmoveto
          -91 -38 66 117 hvcurveto
          8 vlineto
          119 38 66 55 callsubr
        </CharString>
        <CharString name="three">
          -68 -12 85 233 85 222 85 hstemhm
          35 104 -90 105 245 106 -92 107 hintmask 00000000
          hintmask 11110010
          281 -12 rmoveto
          140 99 74 122 91 -54 55 -73 22 hvcurveto
          4 vlineto
          hintmask 11101100
          64 29 48 44 81 vvcurveto
          122 -92 66 -137 -132 -95 -74 -114 vhcurveto
          -21 105 12 vlineto
          76 51 36 73 66 55 -32 -77 -76 -59 -37 -68 vhcurveto
          -69 -85 66 hlineto
          hintmask 11110010
          74 70 -23 -92 -82 -56 -36 -82 -87 -49 41 77 hvcurveto
          14 -104 -11 vlineto
          -125 87 -81 159 vhcurveto
          endchar
        </CharString>
        <CharString name="threeeighths">
          50 callgsubr
          -32 59 100 60 93 59 hstemhm
          38 63 callgsubr
          237 65 callgsubr
          -10 callgsubr
          hintmask 1101111000110010
          169 327 32 callsubr
          hintmask 1101110101010010
          31 -46 callgsubr
          -15 -29 vhcurveto
          hintmask 1101110110010010
          -33 -60 hlineto
          hintmask 1101111000110010
          31 hlineto
          33 30 -11 -17 callsubr
          -68 46 -43 85 vhcurveto
          -63 -339 -1 callgsubr
          10 -710 22 callgsubr
          hintmask 1110110100101100
          -24 callsubr
          hintmask 1101110100110010
          78 callgsubr
          hintmask 1101111000110010
          -61 37 -48 91 vhcurveto
          hintmask 1110110100101100
          -23 callgsubr
          hintmask 1101110100110010
          -28 callsubr
        </CharString>
        <CharString name="threequarters">
          92 callgsubr
          188 59 100 60 93 59 hstemhm
          42 69 -62 69 19 104 -17 69 -63 71 365 69 -10 callgsubr
          hintmask 1001111000110000
          173 327 rmoveto
          75 53 40 66 41 -23 28 -37 16 hvcurveto
          2 vlineto
          hintmask 1001110101010000
          31 17 21 22 37 vvcurveto
          66 -49 36 -73 -71 -51 -40 -62 vhcurveto
          -17 69 12 vlineto
          33 23 15 31 29 23 -13 -33 -32 -25 -15 -30 vhcurveto
          hintmask 1001110110010000
          -32 -60 hlineto
          hintmask 1001111000110000
          30 hlineto
          33 30 -11 -17 callsubr
          -68 47 -43 84 vhcurveto
          hintmask 0101111000110000
          -67 -339 -1 callgsubr
          hintmask 1001110100110000
          14 -698 rmoveto
          69 hlineto
          hintmask 0011110100110000
          79 44 vlineto
          hintmask 1001110100110000
          26 callsubr
          hintmask 0011110100110000
          69 callsubr
        </CharString>
        <CharString name="tilde">
          -291 613 4 callsubr
          2 -14 callsubr
          hintmask 00000000
          hintmask 10110000
          2 613 rmoveto
          66 hlineto
          hintmask 01110000
          -66 callgsubr
          hintmask 10110000
          -53 callsubr
          hintmask 01110000
          -73 callsubr
          hintmask 10110000
          62 callgsubr
          endchar
        </CharString>
        <CharString name="trademark">
          376 281 94 246 66 hstem
          220 71 191 64 291 70 vstem
          220 282 rmoveto
          71 339 140 66 -352 -66 141 hlineto
          262 -340 rmoveto
          64 321 4 hlineto
          108 -321 rlineto
          66 hlineto
          108 318 rlineto
          5 -318 70 406 -106 hlineto
          -104 -312 rlineto
          -4 hlineto
          -103 312 74 callsubr
          endchar
        </CharString>
        <CharString name="two">
          -68 0 96 515 87 hstem
          48 106 250 106 vstem
          40 hmoveto
          474 96 -351 hlineto
          6 10 7 11 11 12 rrcurveto
          91 99 232 90 180 vvcurveto
          113 -72 87 -148 -129 -113 -61 -147 -24 3 -16 0 vhcurveto
          103 41 hlineto
          69 37 51 94 94 25 -59 -46 -34 -11 -30 -20 -27 vhcurveto
          -89 -124 -244 -76 -184 vvcurveto
          endchar
        </CharString>
        <CharString name="u">
          -12 85 callsubr
          65 -26 callsubr
          hintmask 10111000
          232 -12 rmoveto
          74 60 28 54 39 hvcurveto
          7 hlineto
          hintmask 01111000
          -76 callgsubr
          hintmask 10111000
          -101 callsubr
          vhcurveto
          endchar
        </CharString>
        <CharString name="uacute">
          -18 callsubr
          242 -67 callsubr
          -94 -735 -91 callsubr
        </CharString>
        <CharString name="ubreve">
          -37 callgsubr
          94 72 -72 123 hstemhm
          65 -26 callsubr
          hintmask 10101110
          284 600 -74 callgsubr
          hintmask 10110110
          -49 callsubr
          hintmask 10101110
          -90 callgsubr
          -52 -612 rmoveto
          74 60 28 54 39 hvcurveto
          7 hlineto
          hintmask 01101110
          -76 callgsubr
          hintmask 10101110
          -101 callsubr
          vhcurveto
          endchar
        </CharString>
        <CharString name="ucircumflex">
          -37 callgsubr
          82 135 -59 59 hstemhm
          65 -26 callsubr
          hintmask 10110110
          131 2 callsubr
          hintmask 10101110
          57 76 rlineto
          hintmask 10110110
          -101 callgsubr
          -5 84 callgsubr
          hintmask 01110110
          -76 callgsubr
          hintmask 10110110
          -101 callsubr
          vhcurveto
          endchar
        </CharString>
        <CharString name="udieresis">
          -37 callgsubr
          115 102 hstemhm
          65 103 -29 97 97 97 -28 103 hintmask 00000000
          hintmask 10110110
          139 621 -88 callgsubr
          hintmask 10111001
          -101 84 callgsubr
          hintmask 01111001
          -76 callgsubr
          hintmask 10111001
          -101 callsubr
          vhcurveto
          endchar
        </CharString>
        <CharString name="ugrave">
          -18 callsubr
          242 -31 callsubr
          98 -732 -91 callsubr
        </CharString>
        <CharString name="uhorn">
          -37 callgsubr
          100 117 hstemhm
          65 -26 callsubr
          -14 132 hintmask 00000000
          hintmask 10111010
          491 723 -23 callsubr
          hintmask 10111100
          -14 -43 -35 -26 -58 -11 rrcurveto
          -41 -309 hlineto
          -101 callsubr
          74 60 28 54 39 vhcurveto
          7 hlineto
          hintmask 01111100
          10 -70 rlineto
          83 484 hlineto
          hintmask 10111010
          19 callgsubr
          endchar
        </CharString>
        <CharString name="uhungarumlaut">
          -18 callsubr
          167 591 -59 callgsubr
          -152 -735 -91 callsubr
        </CharString>
        <CharString name="umacron">
          -37 callgsubr
          116 77 hstemhm
          65 -26 callsubr
          hintmask 10111100
          132 622 -47 callgsubr
          100 -711 -91 callsubr
        </CharString>
        <CharString name="underscore">
          -68 -135 67 hstem
          0 556 vstem
          -135 vmoveto
          556 67 -556 hlineto
          endchar
        </CharString>
        <CharString name="underscoredbl">
          -72 -246 65 48 65 hstem
          0 551 vstem
          -133 vmoveto
          551 65 -551 hlineto
          -178 vmoveto
          551 65 -551 hlineto
          endchar
        </CharString>
        <CharString name="uni00A0">
          -346 endchar
        </CharString>
        <CharString name="uni00AD">
          37 callsubr
        </CharString>
        <CharString name="uni00B2">
          -291 333 62 244 60 hstemhm
          41 253 -249 70 108 69 hintmask 00000000
          hintmask 11100000
          41 333 58 callgsubr
          17 23 17 rrcurveto
          hintmask 11011000
          50 36 59 40 71 vvcurveto
          61 -39 46 -79 -69 -60 -32 -78 -12 2 -13 0 vhcurveto
          68 23 hlineto
          30 16 22 41 40 11 -26 -19 -14 -6 -15 -10 -13 vhcurveto
          hintmask 11100000
          -15 -20 -25 -18 -26 -19 rrcurveto
          -49 -37 -51 -38 -63 vvcurveto
          endchar
        </CharString>
        <CharString name="uni00B3">
          -291 327 59 100 60 93 59 hstemhm
          38 69 -62 69 18 105 -17 69 -63 71 hintmask 00000000
          hintmask 11110001
          169 327 rmoveto
          75 53 40 66 41 -24 28 -36 16 hvcurveto
          2 vlineto
          hintmask 11101010
          30 -46 callgsubr
          -15 -29 vhcurveto
          hintmask 11101100
          -33 -60 hlineto
          hintmask 11110001
          31 hlineto
          33 30 -11 -17 callsubr
          -68 46 -43 85 vhcurveto
          endchar
        </CharString>
        <CharString name="uni00B5">
          -43 callsubr
        </CharString>
        <CharString name="uni00B9">
          -291 329 61 213 45 -45 83 hstemhm
          138 70 hintmask 10110000
          52 329 rmoveto
          234 61 -78 296 -34 hlineto
          hintmask 11010000
          48 callgsubr
          hintmask 10110000
          -45 86 -213 -86 vlineto
          endchar
        </CharString>
        <CharString name="uni0162">
          -13 33 callsubr
          56 -21 590 96 hstemhm
          250 111 -17 83 hintmask 10111100
          361 hmoveto
          12 callsubr
          -590 vlineto
          hintmask 10111010
          20 hlineto
          -13 -77 -16 callsubr
          hintmask 01111100
          -49 vlineto
          hintmask 10111010
          11 callgsubr
          -51 3 hvcurveto
          hintmask 10111100
          6 35 rlineto
          endchar
        </CharString>
        <CharString name="uni0163">
          -329 33 callsubr
          24 87 callgsubr
          13 83 hintmask 00000000
          hintmask 10111100
          185 -35 rmoveto
          hintmask 10011100
          4 24 rlineto
          5 hlineto
          -57 callsubr
          hintmask 10111100
          -39 11 -39 33 -23 vhcurveto
          hintmask 10111110
          -15 -85 -16 callsubr
          hintmask 01011100
          -49 vlineto
          hintmask 10011110
          -5 28 37 -3 33 hhcurveto
          49 74 14 67 hvcurveto
          hintmask 10111100
          46 -43 17 -51 3 vhcurveto
          endchar
        </CharString>
        <CharString name="uni018F">
          134 -12 92 200 93 233 92 hstem
          45 115 435 114 vstem
          373 -12 rmoveto
          227 109 110 240 247 -114 113 -225 -191 -134 -81 -165 hvcurveto
          107 hlineto
          111 95 43 115 150 74 -74 -159 9 vhcurveto
          -550 -57 hlineto
          -233 117 -95 211 vhcurveto
          6 92 rmoveto
          -131 -88 55 145 hvcurveto
          432 hlineto
          -142 -15 -64 -58 -134 hhcurveto
          endchar
        </CharString>
        <CharString name="uni019D">
          76 callgsubr
          105 362 105 vstem
          62 -182 rmoveto
          91 27 64 63 hvcurveto
          480 vlineto
          23 -1 29 17 vvcurveto
          5 1 9 -12 15 -23 15 -22 rlinecurve
          324 -438 rlineto
          100 686 -105 -437 hlineto
          -67 callgsubr
          -739 hlineto
          -30 -15 -17 -30 vhcurveto
          -46 -69 hlineto
          -6 19 32 -7 27 hhcurveto
          endchar
        </CharString>
        <CharString name="uni01C4">
          709 0 95 496 95 47 79 callgsubr
          377 114 vstem
          980 733 -99 callgsubr
          -799 -868 rmoveto
          -65 callgsubr
          -264 hlineto
          668 -686 rmoveto
          -74 callsubr
          -557 40 -68 callsubr
          endchar
        </CharString>
        <CharString name="uni01C5">
          598 0 85 -85 95 346 85 62 135 -132 95 -13 callgsubr
          377 114 hintmask 00000000
          hintmask 10110110
          924 588 -99 callgsubr
          -743 -723 rmoveto
          264 hlineto
          210 128 106 237 hvcurveto
          hintmask 01101110
          237 -128 106 -210 vhcurveto
          -264 hlineto
          111 -591 -68 callsubr
          hintmask 10101110
          406 -95 rmoveto
          -83 callsubr
          endchar
        </CharString>
        <CharString name="uni01C6">
          449 -12 87 -75 85 356 85 -75 87 50 135 -27 callsubr
          531 600 -99 callgsubr
          -73 -723 rmoveto
          -83 callsubr
          hintmask 10011110
          -323 24 -61 callsubr
          endchar
        </CharString>
        <CharString name="uni01C7">
          466 -12 94 -82 96 590 -20 -13 callgsubr
          415 53 callsubr
          hintmask 01111100
          75 hmoveto
          -1 callsubr
          hintmask 10111100
          734 -698 -72 callsubr
        </CharString>
        <CharString name="uni01C8">
          188 -182 82 100 96 430 -20 111 106 -37 -20 -13 callgsubr
          455 103 hintmask 11110110
          641 35 callgsubr
          -566 -723 rmoveto
          468 96 -357 hlineto
          hintmask 11101110
          590 -111 vlineto
          551 -868 -84 callgsubr
        </CharString>
        <CharString name="uni01C9">
          -146 40 callsubr
          hstem
          68 103 136 72 callsubr
          723 -103 hlineto
          239 -106 42 callsubr
          -15 -905 -84 callgsubr
        </CharString>
        <CharString name="uni01CA">
          615 -12 94 -82 217 -196 -10 callsubr
          hstemhm
          73 callsubr
          103 53 callsubr
          hintmask 00000000
          hintmask 00111111
          -18 callgsubr
          hintmask 10011111
          883 -698 rmoveto
          133 75 69 140 hvcurveto
          489 -110 -492 vlineto
          -74 -34 -38 -64 -64 -34 35 66 vhcurveto
          hintmask 01011111
          34 -110 -31 vlineto
          hintmask 10011111
          -130 76 -68 132 vhcurveto
          endchar
        </CharString>
        <CharString name="uni01CB">
          337 40 callsubr
          -37 -20 hstemhm
          73 callsubr
          143 103 hintmask 11110111
          790 35 callgsubr
          -715 -723 rmoveto
          105 443 hlineto
          16 -1 24 11 vvcurveto
          5 1 6 80 callsubr
          -17 rlinecurve
          333 -451 rlineto
          100 hlineto
          hintmask 11101111
          686 -105 -437 vlineto
          -67 callgsubr
          hlineto
          700 -868 -84 callgsubr
        </CharString>
        <CharString name="uni01CC">
          188 -182 82 121 9 callsubr
          111 106 24 callsubr
          133 103 hintmask 11101111
          641 35 callgsubr
          -573 -723 rmoveto
          103 309 hlineto
          -87 callsubr
          hintmask 11011111
          -10 70 rlineto
          -83 hlineto
          558 -708 -84 callgsubr
        </CharString>
        <CharString name="uni01CD">
          -69 callgsubr
          47 135 43 callgsubr
          294 733 -99 callgsubr
          -183 -868 -103 callsubr
        </CharString>
        <CharString name="uni01CE">
          -82 callgsubr
          50 135 56 callgsubr
          230 588 -99 callgsubr
          80 7 callgsubr
          hintmask 01111011
          -107 callsubr
          hintmask 10111101
          -104 callsubr
          endchar
        </CharString>
        <CharString name="uni01CF">
          0 callgsubr
          67 135 73 callgsubr
          91 733 -99 callgsubr
          99 -868 -45 callgsubr
        </CharString>
        <CharString name="uni01D0">
          0 callsubr
          82 135 hstem
          88 103 vstem
          91 588 -99 callgsubr
          103 -723 -20 callgsubr
        </CharString>
        <CharString name="uni01D1">
          -59 callsubr
          35 135 -43 callgsubr
          341 733 -99 callgsubr
          154 -880 -107 callgsubr
          endchar
        </CharString>
        <CharString name="uni01D2">
          -39 callsubr
          50 135 24 callgsubr
          239 588 -99 callgsubr
          153 -92 callgsubr
        </CharString>
        <CharString name="uni01D3">
          -15 callgsubr
          67 135 -19 callsubr
          313 733 -99 callgsubr
          153 -880 rmoveto
          -104 callgsubr
          endchar
        </CharString>
        <CharString name="uni01D4">
          -37 callgsubr
          82 135 hstemhm
          65 -26 callsubr
          hintmask 10111100
          237 588 -99 callgsubr
          101 -735 -91 callsubr
        </CharString>
        <CharString name="uni01D5">
          -15 callgsubr
          100 102 66 77 8 callsubr
          hintmask 11111001
          208 934 -47 callgsubr
          hintmask 11111111
          7 -245 1 callsubr
          -49 -880 rmoveto
          -104 callgsubr
          endchar
        </CharString>
        <CharString name="uni01D6">
          -37 callgsubr
          115 102 66 77 13 callsubr
          132 789 -47 callgsubr
          hintmask 1011101100000000
          7 -245 -83 callgsubr
        </CharString>
        <CharString name="uni01D7">
          -15 callgsubr
          100 102 35 132 8 callsubr
          hintmask 11111001
          318 903 -96 callgsubr
          hintmask 11111111
          -187 -269 1 callsubr
          -49 -880 rmoveto
          -104 callgsubr
          endchar
        </CharString>
        <CharString name="uni01D8">
          -37 callgsubr
          115 102 35 132 13 callsubr
          242 758 -96 callgsubr
          hintmask 1011101100000000
          -187 -269 -83 callgsubr
        </CharString>
        <CharString name="uni01D9">
          -15 callgsubr
          100 102 32 135 8 callsubr
          hintmask 11111001
          313 900 -99 callgsubr
          hintmask 11111111
          8 -269 1 callsubr
          -49 -880 rmoveto
          -104 callgsubr
          endchar
        </CharString>
        <CharString name="uni01DA">
          -37 callgsubr
          115 102 32 135 13 callsubr
          237 755 -99 callgsubr
          hintmask 1011101100000000
          8 -269 -83 callgsubr
        </CharString>
        <CharString name="uni01DB">
          -15 callgsubr
          100 102 35 132 8 callsubr
          hintmask 11111001
          318 903 -81 callsubr
          hintmask 11111111
          5 -266 1 callsubr
          -49 -880 rmoveto
          -104 callgsubr
          endchar
        </CharString>
        <CharString name="uni01DC">
          -37 callgsubr
          115 102 35 132 13 callsubr
          242 758 -81 callsubr
          hintmask 1011101100000000
          5 -266 -83 callgsubr
        </CharString>
        <CharString name="uni01EA">
          154 -182 66 104 -45 callsubr
          hstem
          5 callsubr
          248 86 127 114 vstem
          529 8 rmoveto
          130 43 -38 callgsubr
          181 vvcurveto
          239 -130 116 -215 -214 -130 -116 -239 -239 130 -116 214 17 17 1 1 17 vhcurveto
          -19 -21 -14 -25 -37 67 callgsubr
          21 21 5 9 22 vhcurveto
          52 -30 vlineto
          30 callgsubr
          -370 328 rmoveto
          12 vlineto
          179 1 85 77 144 hhcurveto
          145 85 -77 -179 1 hvcurveto
          -12 vlineto
          -24 callgsubr
          endchar
        </CharString>
        <CharString name="uni01EB">
          -182 66 104 85 380 85 hstem
          36 106 140 86 63 106 vstem
          537 263 rmoveto
          189 -86 86 -165 -165 -85 -86 -189 -189 85 -86 165 9 9 0 1 9 vhcurveto
          -18 -21 -13 -25 -36 67 callgsubr
          21 21 5 9 22 vhcurveto
          52 -30 vlineto
          30 callgsubr
          88 35 45 83 137 vvcurveto
          -395 -5 rmoveto
          10 vlineto
          128 43 57 101 102 43 -57 -128 vhcurveto
          -10 vlineto
          -12 callgsubr
          endchar
        </CharString>
        <CharString name="uni01F1">
          709 0 95 496 95 -34 callsubr
          377 114 vstem
          75 hmoveto
          -65 callgsubr
          -264 hlineto
          668 -686 rmoveto
          -74 callsubr
          -557 40 -68 callsubr
          endchar
        </CharString>
        <CharString name="uni01F2">
          598 0 85 -85 95 346 85 65 95 -13 callgsubr
          377 114 hintmask 10111100
          75 hmoveto
          -65 callgsubr
          -264 hlineto
          hintmask 01111100
          111 -591 -68 callsubr
          hintmask 10111100
          406 -95 rmoveto
          -83 callsubr
          endchar
        </CharString>
        <CharString name="uni01F3">
          449 -12 87 -75 85 356 85 -75 87 185 -20 -27 callsubr
          352 12 rmoveto
          -83 callsubr
          hintmask 10011110
          -323 24 -61 callsubr
          endchar
        </CharString>
        <CharString name="uni01F4">
          -29 callgsubr
          38 132 -2 callgsubr
          hintmask 10111101
          538 865 14 callsubr
          -62 -468 -88 callsubr
        </CharString>
        <CharString name="uni01F5">
          -33 callgsubr
          53 132 -3 callsubr
          -100 99 hintmask 1111100110000000
          60 callgsubr
          hintmask 1111110001000000
          -169 -78 callsubr
        </CharString>
        <CharString name="uni0200">
          -69 callgsubr
          50 132 43 callgsubr
          241 736 -97 callsubr
          -295 -865 -103 callsubr
        </CharString>
        <CharString name="uni0201">
          -82 callgsubr
          53 132 56 callgsubr
          177 591 -97 callsubr
          -32 -732 -75 callsubr
          hintmask 01111011
          -107 callsubr
          hintmask 10111101
          -104 callsubr
          endchar
        </CharString>
        <CharString name="uni0202">
          -69 callgsubr
          110 72 43 callgsubr
          191 745 -94 callgsubr
          -186 -89 callsubr
          endchar
        </CharString>
        <CharString name="uni0203">
          -82 callgsubr
          113 72 56 callgsubr
          127 600 -94 callgsubr
          77 22 callsubr
          hintmask 01111011
          -107 callsubr
          hintmask 10111101
          -104 callsubr
          endchar
        </CharString>
        <CharString name="uni0204">
          -64 callgsubr
          50 132 -34 callsubr
          vstem
          233 736 -97 callsubr
          -217 -865 -84 callsubr
        </CharString>
        <CharString name="uni0205">
          10 callsubr
          177 591 -97 callsubr
          53 -732 -105 callsubr
        </CharString>
        <CharString name="uni0206">
          -64 callgsubr
          110 72 -34 callsubr
          vstem
          183 745 -94 callgsubr
          -108 -745 -84 callsubr
        </CharString>
        <CharString name="uni0207">
          -56 callgsubr
          113 72 34 callgsubr
          127 600 -94 callgsubr
          162 -612 -105 callsubr
        </CharString>
        <CharString name="uni0208">
          -346 -8 callsubr
          84 111 vstem
          38 736 -97 callsubr
          -13 -865 -45 callgsubr
        </CharString>
        <CharString name="uni0209">
          0 callsubr
          85 132 hstem
          88 103 vstem
          38 591 -97 callsubr
          -9 -720 -20 callgsubr
        </CharString>
        <CharString name="uni020A">
          0 callgsubr
          130 72 73 callgsubr
          -12 745 -94 callgsubr
          96 -745 -45 callgsubr
        </CharString>
        <CharString name="uni020B">
          0 callsubr
          145 72 hstem
          88 103 vstem
          -12 600 -94 callgsubr
          100 -600 -20 callgsubr
        </CharString>
        <CharString name="uni020C">
          -37 callsubr
          288 736 -97 callsubr
          42 -877 -107 callgsubr
          endchar
        </CharString>
        <CharString name="uni020D">
          2 callgsubr
          186 591 -97 callsubr
          41 -732 -103 callgsubr
        </CharString>
        <CharString name="uni020E">
          -59 callsubr
          98 72 -43 callgsubr
          238 745 -94 callgsubr
          151 -757 -107 callgsubr
          endchar
        </CharString>
        <CharString name="uni020F">
          -39 callsubr
          113 72 24 callgsubr
          136 600 -94 callgsubr
          150 -612 -103 callgsubr
        </CharString>
        <CharString name="uni0210">
          23 callsubr
          50 132 -34 callsubr
          355 112 vstem
          260 736 -97 callsubr
          -244 -865 rmoveto
          -95 callsubr
          endchar
        </CharString>
        <CharString name="uni0211">
          7 callsubr
          81 132 hstemhm
          68 103 hintmask 11001100
          75 591 -97 callsubr
          -66 -720 -64 callsubr
        </CharString>
        <CharString name="uni0212">
          23 callsubr
          110 72 -34 callsubr
          355 112 vstem
          210 745 -94 callgsubr
          -135 -745 rmoveto
          -95 callsubr
          endchar
        </CharString>
        <CharString name="uni0213">
          7 callsubr
          141 72 hstemhm
          68 103 hintmask 11001100
          25 600 -94 callgsubr
          43 -600 -64 callsubr
        </CharString>
        <CharString name="uni0214">
          -17 callgsubr
          260 736 -97 callsubr
          41 -877 rmoveto
          -104 callgsubr
          endchar
        </CharString>
        <CharString name="uni0215">
          -18 callsubr
          184 591 -97 callsubr
          -11 -732 -91 callsubr
        </CharString>
        <CharString name="uni0216">
          -15 callgsubr
          130 72 -19 callsubr
          210 745 -94 callgsubr
          150 -757 rmoveto
          -104 callgsubr
          endchar
        </CharString>
        <CharString name="uni0217">
          -37 callgsubr
          145 72 hstemhm
          65 -26 callsubr
          hintmask 10111100
          134 600 -94 callgsubr
          98 -612 -91 callsubr
        </CharString>
        <CharString name="uni021A">
          -13 72 callgsubr
          590 96 hstem
          250 111 vstem
          16 callsubr
          5 -820 rmoveto
          -63 callgsubr
        </CharString>
        <CharString name="uni021B">
          -329 -146 94 41 87 callgsubr
          -77 103 hintmask 11110000
          194 -11 rmoveto
          -57 callsubr
          89 callgsubr
          -87 -219 rmoveto
          hintmask 11101000
          -63 callgsubr
        </CharString>
        <CharString name="uni0232">
          53 callgsubr
          101 77 hstem
          279 111 vstem
          181 767 -47 callgsubr
          98 -844 rmoveto
          -90 callsubr
          endchar
        </CharString>
        <CharString name="uni0232.loclGUA">
          -7 callsubr
          101 77 -34 callsubr
          295 111 vstem
          181 767 -47 callgsubr
          144 -856 -100 callgsubr
        </CharString>
        <CharString name="uni0233">
          34 callsubr
          116 77 hstem
          12 493 vstem
          106 622 -47 callgsubr
          21 -881 -102 callsubr
          endchar
        </CharString>
        <CharString name="uni0233.loclGUA">
          -7 callgsubr
          116 77 hstem
          65 -26 callsubr
          vstem
          134 622 -47 callgsubr
          138 -881 -99 callsubr
        </CharString>
        <CharString name="uni0237">
          -385 -182 82 626 -20 hstem
          68 103 vstem
          53 -182 -84 callgsubr
        </CharString>
        <CharString name="uni0259">
          -68 -12 83 140 78 166 83 hstem
          38 107 268 105 vstem
          270 -12 rmoveto
          165 83 87 188 186 -82 89 -163 -137 -98 -62 -131 hvcurveto
          101 hlineto
          78 56 32 74 92 47 -52 -114 5 vhcurveto
          -375 -40 hlineto
          -186 79 -75 153 vhcurveto
          1 83 rmoveto
          -77 -49 37 103 hvcurveto
          266 hlineto
          -96 -10 -46 -44 -84 hhcurveto
          endchar
        </CharString>
        <CharString name="uni0272">
          -182 82 121 9 callsubr
          24 callsubr
          hintmask 11101100
          53 -182 rmoveto
          91 27 64 63 hvcurveto
          364 vlineto
          -87 callsubr
          hintmask 11011100
          -10 70 rlineto
          -83 -579 hlineto
          -30 -15 -17 -31 vhcurveto
          -46 -69 hlineto
          hintmask 11101100
          -6 19 32 -7 26 hhcurveto
          endchar
        </CharString>
        <CharString name="uni02BC">
          -399 584 102 hstem
          62 101 vstem
          62 475 rmoveto
          53 hlineto
          48 79 callsubr
          40 vlineto
          endchar
        </CharString>
        <CharString name="uni02C9">
          37 callgsubr
        </CharString>
</ttFont>
